<?xml version="1.0" standalone="no"?>
<!DOCTYPE svg PUBLIC "-//W3C//DTD SVG 20010904//EN"
 "http://www.w3.org/TR/2001/REC-SVG-20010904/DTD/svg10.dtd">
<svg version="1.0" xmlns="http://www.w3.org/2000/svg"
  width="170.000000pt" height="106.000000pt" viewBox="0 0 1765.000000 505.000000"
 preserveAspectRatio="xMidYMid meet">

<g transform="translate(0.000000,505.000000) scale(0.100000,-0.100000)"
fill="#000000" opacity="0.30" stroke="none">
<path d="M1590 4330 c-353 -44 -643 -165 -885 -371 -245 -206 -425 -523 -494
-867 -98 -487 -13 -1006 222 -1359 196 -294 510 -500 888 -582 283 -61 668
-51 979 25 86 22 222 67 239 80 2 2 -11 59 -28 126 -18 68 -37 139 -42 159
l-9 37 -59 -24 c-211 -85 -542 -124 -796 -93 -450 55 -782 314 -924 722 -62
177 -75 267 -75 522 -1 200 2 244 21 341 54 264 157 467 320 629 217 215 513
325 878 325 194 0 413 -39 556 -99 l69 -29 20 67 c10 36 32 110 49 164 l29 99
-43 18 c-84 36 -201 68 -325 90 -143 24 -464 35 -590 20z"/>
<path d="M11185 4303 c-215 -7 -590 -41 -647 -59 -17 -5 -18 -87 -18 -1545 l0
-1539 350 0 350 0 0 558 0 557 232 1 c311 0 498 33 704 121 349 151 546 415
594 797 38 298 -47 576 -235 775 -257 271 -607 359 -1330 334z m530 -547 c151
-41 269 -135 316 -253 20 -50 24 -76 24 -183 0 -145 -13 -195 -77 -290 -69
-103 -191 -176 -346 -206 -76 -14 -284 -19 -366 -8 l-46 7 0 464 c0 362 3 465
13 468 69 27 383 27 482 1z"/>
<path d="M3137 4274 c-67 -21 -131 -86 -151 -155 -20 -66 -20 -102 -1 -165 31
-106 118 -167 236 -166 155 1 248 94 249 248 0 185 -152 293 -333 238z"/>
<path d="M9465 4045 c-5 -2 -90 -25 -187 -51 l-178 -47 0 -268 0 -269 -175 0
-175 0 0 -155 0 -155 175 0 175 0 0 -667 c0 -687 5 -790 41 -923 82 -303 340
-441 726 -389 43 5 104 17 136 26 l59 16 -7 121 c-8 161 -13 189 -31 182 -7
-3 -60 -10 -116 -16 -184 -18 -283 16 -345 119 -57 94 -56 89 -60 839 l-4 692
291 0 290 0 0 155 0 155 -290 0 -290 0 0 320 c0 325 0 327 -35 315z"/>
<path d="M13812 3469 c-213 -19 -420 -68 -583 -138 -51 -22 -96 -44 -100 -48
-7 -7 89 -370 115 -439 2 -6 40 7 93 32 297 143 688 163 849 45 54 -40 95
-117 101 -190 l6 -58 -134 -7 c-492 -25 -803 -134 -1010 -353 -77 -82 -117
-148 -155 -258 -26 -74 -28 -91 -29 -240 0 -149 2 -165 27 -233 39 -108 84
-177 168 -262 87 -87 193 -148 317 -182 112 -30 313 -30 438 1 132 32 259 98
349 182 41 38 78 69 83 69 5 0 18 -51 28 -113 l20 -112 318 -3 c175 -1 316 1
313 6 -17 28 -29 332 -35 907 l-8 660 -25 95 c-60 225 -174 388 -347 499 -187
119 -471 169 -799 140z m496 -1421 c-3 -176 -4 -185 -30 -234 -77 -146 -245
-229 -410 -203 -83 13 -144 51 -183 113 -28 46 -30 55 -30 150 0 92 2 105 27
147 54 91 153 152 298 183 100 21 118 23 233 25 l99 1 -4 -182z"/>
<path d="M5065 3445 c-221 -40 -423 -169 -540 -343 -24 -35 -45 -60 -48 -55
-2 4 -8 73 -11 153 -4 80 -10 160 -13 178 l-5 32 -180 0 -180 0 7 -32 c4 -18
9 -525 12 -1125 l5 -1093 204 0 204 0 0 723 c0 802 -2 776 67 917 51 105 160
214 263 263 97 46 179 61 288 54 197 -13 336 -112 412 -293 58 -139 60 -176
60 -955 l0 -709 206 0 205 0 -4 773 c-3 673 -6 782 -20 847 -73 328 -228 529
-483 626 -136 51 -303 66 -449 39z"/>
<path d="M7416 3450 c-365 -58 -648 -288 -791 -644 -122 -302 -137 -690 -39
-991 123 -373 401 -611 799 -685 166 -30 448 -21 660 21 102 21 311 84 319 97
4 7 -58 279 -66 287 -3 3 -33 -7 -69 -21 -133 -54 -257 -75 -474 -81 -181 -5
-209 -3 -290 16 -238 57 -410 204 -495 423 -29 76 -60 229 -60 301 l0 37 789
0 788 0 6 68 c31 323 -59 654 -238 883 -96 122 -267 228 -435 269 -97 24 -310
34 -404 20z m246 -294 c254 -46 417 -262 442 -588 l5 -68 -594 0 -595 0 0 28
c0 50 39 184 75 261 76 159 166 256 299 322 118 57 224 70 368 45z"/>
<path d="M15262 3413 c3 -10 196 -493 428 -1073 340 -848 423 -1064 423 -1101
1 -62 -44 -138 -142 -241 -108 -115 -251 -201 -411 -249 -41 -12 -76 -22 -77
-23 -1 -1 31 -132 71 -291 66 -267 74 -290 95 -293 35 -5 210 44 310 86 452
195 717 568 1070 1504 68 180 601 1681 601 1692 0 3 -168 6 -374 6 l-374 0
-165 -667 c-91 -368 -176 -713 -189 -767 -13 -55 -28 -101 -34 -103 -6 -2 -29
68 -54 164 -41 162 -97 349 -308 1043 l-99 325 -388 3 c-366 2 -387 1 -383
-15z"/>
<path d="M3020 2285 l0 -1125 205 0 205 0 0 1125 0 1125 -205 0 -205 0 0
-1125z"/>
</g>
</svg>
