<?xml version="1.0" standalone="no"?>
<!DOCTYPE svg PUBLIC "-//W3C//DTD SVG 20010904//EN"
 "http://www.w3.org/TR/2001/REC-SVG-20010904/DTD/svg10.dtd">
<svg version="1.0" xmlns="http://www.w3.org/2000/svg"
 width="401.000000pt" height="265.000000pt" viewBox="0 0 401.000000 265.000000"
 preserveAspectRatio="xMidYMid meet">

<g transform="translate(0.000000,265.000000) scale(0.100000,-0.100000)"
fill="#000000"  opacity="0.3" stroke="none">
<path d="M1795 2231 c-54 -24 -300 -280 -315 -327 -7 -19 -10 -55 -8 -80 l3
-44 -60 60 -60 60 52 52 c28 29 54 63 57 75 4 11 18 28 31 37 30 20 31 30 5
56 -14 14 -33 20 -64 20 -37 0 -53 -7 -98 -42 -123 -98 -148 -133 -148 -211 0
-57 -3 -54 276 -337 122 -124 265 -273 318 -332 54 -58 104 -109 112 -112 9
-3 12 -1 9 4 -9 14 -3 13 36 -7 50 -26 152 -23 206 5 58 30 341 319 376 383
31 59 36 137 12 196 -15 36 -333 378 -343 368 -3 -2 -45 34 -94 81 -49 47
-104 92 -123 100 -47 19 -132 17 -180 -5z m127 -94 c32 -15 480 -480 491 -510
6 -19 5 -20 -6 -6 -11 14 -12 11 -12 -21 0 -43 -24 -73 -202 -256 -76 -78
-117 -113 -138 -117 -27 -5 -40 6 -162 126 -73 72 -132 132 -130 133 1 1 21
-2 43 -9 66 -17 115 8 211 106 111 113 133 148 133 210 0 49 -1 51 -87 139
-96 98 -125 118 -173 118 -38 0 -100 -27 -107 -47 -9 -24 2 -24 43 -2 67 37
99 24 191 -77 43 -47 81 -94 85 -104 18 -49 -21 -105 -155 -221 -97 -85 -108
-83 -222 31 -49 50 -85 90 -80 90 5 0 -12 20 -38 43 -76 71 -72 85 71 230 103
105 172 157 207 156 6 0 22 -5 37 -12z m293 -107 c10 -11 16 -20 13 -20 -3 0
-13 9 -23 20 -10 11 -16 20 -13 20 3 0 13 -9 23 -20z m-392 -823 c45 -50 77
-88 72 -86 -6 2 -51 49 -100 104 -49 55 -82 94 -72 86 9 -7 54 -54 100 -104z"/>
<path d="M613 1030 c-99 -20 -184 -74 -233 -148 -30 -45 -33 -47 -88 -52 -43
-4 -58 -9 -60 -22 -3 -14 6 -17 46 -20 l50 -3 -89 -189 c-49 -105 -89 -194
-89 -199 0 -8 76 -4 85 5 2 1 48 89 103 193 l99 190 64 3 c60 3 89 14 89 33 0
5 -29 9 -65 9 l-65 0 29 58 c44 87 57 95 142 91 59 -3 73 -1 83 13 21 34 -29
52 -101 38z"/>
<path d="M2987 964 c-4 -4 -7 -57 -8 -118 -1 -84 -3 -103 -10 -80 -13 45 -78
100 -128 109 -53 9 -126 -25 -158 -74 -32 -48 -31 -124 1 -172 64 -94 208 -92
266 3 11 18 20 41 20 51 0 10 5 15 10 12 6 -3 10 -15 10 -25 0 -24 44 -77 81
-95 69 -36 168 -6 207 63 71 127 -46 275 -184 229 l-43 -14 -3 56 c-3 52 -5
56 -28 59 -14 2 -29 0 -33 -4z m-106 -183 c83 -83 -36 -209 -125 -132 -65 56
-22 159 67 161 19 0 39 -10 58 -29z m318 3 c53 -44 40 -123 -25 -150 -29 -12
-39 -12 -68 0 -64 26 -76 97 -27 147 37 37 79 38 120 3z"/>
<path d="M3330 951 c0 -4 11 -6 25 -3 14 2 25 6 25 8 0 2 -11 4 -25 4 -14 0
-25 -4 -25 -9z"/>
<path d="M3432 812 c3 -139 5 -151 28 -184 25 -37 75 -68 110 -68 15 0 20 7
20 30 0 24 -6 32 -34 44 -19 8 -39 23 -45 34 -6 12 -11 78 -11 156 l0 136 -36
0 -35 0 3 -148z"/>
<path d="M2283 865 c-58 -25 -73 -64 -73 -192 l0 -113 35 0 35 0 0 108 c0 93
3 111 18 125 10 10 28 17 40 17 40 0 50 -24 57 -140 l8 -110 28 0 29 0 0 105
c0 92 3 108 20 125 25 25 62 26 83 2 14 -15 17 -40 17 -125 l0 -107 35 0 35 0
0 105 c0 117 -13 163 -53 190 -43 28 -92 30 -132 6 -35 -20 -35 -20 -68 -1
-37 23 -70 25 -114 5z"/>
<path d="M3695 873 c-32 -8 -84 -51 -101 -85 -22 -42 -15 -125 14 -165 64 -90
208 -82 265 15 l19 32 -41 0 c-23 0 -41 -4 -41 -9 0 -16 -69 -42 -93 -35 -28
8 -67 44 -67 61 0 10 27 13 119 13 132 0 136 2 119 64 -20 75 -114 128 -193
109z m93 -79 c37 -26 25 -34 -53 -34 -79 0 -93 10 -47 34 35 20 72 20 100 0z"/>
<path d="M1184 851 c-208 -59 -297 -225 -151 -280 66 -25 191 -8 299 41 51 23
65 34 58 43 -8 10 -24 7 -73 -13 -70 -28 -177 -40 -219 -23 -20 7 -28 18 -28
35 0 14 3 27 8 29 4 3 59 12 122 22 160 23 240 60 240 112 0 51 -134 69 -256
34z m135 -20 c23 -15 3 -48 -42 -70 -43 -21 -166 -45 -176 -35 -3 3 13 23 37
44 60 54 146 83 181 61z"/>
<path d="M1663 855 c-170 -46 -282 -167 -226 -243 35 -48 121 -63 234 -42 56
11 189 67 189 81 0 17 -27 14 -84 -10 -115 -47 -246 -37 -246 19 0 26 4 28
111 41 173 21 265 64 257 120 -2 13 -14 29 -28 36 -33 17 -141 15 -207 -2z
m115 -24 c22 -13 10 -43 -25 -63 -34 -21 -180 -54 -190 -44 -12 11 41 56 101
86 61 31 91 36 114 21z"/>
<path d="M666 822 c-101 -55 -102 -86 -1 -41 74 33 76 16 11 -102 -31 -56 -56
-106 -56 -110 0 -11 56 -21 78 -15 11 4 25 19 31 34 21 45 94 134 135 164 31
22 50 28 91 28 57 0 90 23 83 57 -8 42 -87 27 -167 -32 -34 -25 -61 -42 -61
-39 0 3 7 19 16 35 36 70 -50 81 -160 21z"/>
<path d="M3320 705 l0 -145 35 0 35 0 0 145 0 145 -35 0 -35 0 0 -145z"/>
</g>
</svg>
