<?xml version="1.0" standalone="no"?>
<!DOCTYPE svg PUBLIC "-//W3C//DTD SVG 20010904//EN"
 "http://www.w3.org/TR/2001/REC-SVG-20010904/DTD/svg10.dtd">
<svg version="1.0" xmlns="http://www.w3.org/2000/svg"
width="812.000000pt" height="512.000000pt" viewBox="0 0 320.000000 93.000000"
 preserveAspectRatio="xMidYMid meet">
<metadata>
Created by potrace 1.16, written by Peter Selinger 2001-2019
</metadata>
<g transform="translate(0.000000,93.000000) scale(0.100000,-0.100000)"
fill="#000000" opacity="0.30" stroke="none">
<path d="M0 465 l0 -465 1600 0 1600 0 0 465 0 465 -1600 0 -1600 0 0 -465z
m258 293 l3 -88 67 0 67 0 65 -105 c36 -58 68 -105 73 -105 4 0 7 47 7 105 l0
105 100 0 100 0 -6 43 c-4 23 -10 61 -14 85 l-7 42 315 0 315 0 -7 -42 c-4
-24 -9 -57 -12 -74 l-6 -31 69 0 c110 1 210 -57 257 -148 16 -30 16 -29 16 48
l0 77 105 0 105 0 0 -192 c0 -164 2 -194 17 -210 21 -24 48 -23 73 2 19 19 20
33 20 210 l0 190 100 0 100 0 0 -76 0 -76 33 48 c19 27 56 63 82 79 45 28 55
30 149 30 92 0 105 -2 148 -28 26 -15 55 -41 65 -57 9 -17 21 -30 25 -30 4 0
8 25 8 55 l0 55 95 0 95 0 0 -100 0 -100 45 0 45 0 0 100 0 100 95 0 95 0 0
-295 0 -295 -95 0 -95 0 0 115 0 115 -45 0 -45 0 0 -115 0 -115 -97 0 -98 0 3
50 c4 55 -7 64 -32 25 -9 -13 -37 -37 -63 -52 -44 -26 -56 -28 -155 -28 -102
0 -108 1 -149 30 -24 17 -54 46 -67 65 -13 19 -27 37 -33 38 -5 2 -9 -25 -9
-62 l0 -66 -95 0 c-78 0 -95 3 -95 15 0 19 1 19 -51 -5 -55 -24 -133 -26 -179
-2 -38 19 -78 72 -87 115 -7 36 -15 34 -38 -9 -43 -80 -140 -134 -239 -134
-99 0 -165 32 -223 108 l-33 44 0 -66 0 -66 -110 0 -110 0 0 284 0 285 -95 3
-95 3 0 -287 0 -288 -84 0 -83 0 -64 97 -64 97 -3 -96 -3 -95 -136 -6 c-75 -4
-162 -7 -195 -7 l-58 0 0 390 0 391 108 -3 107 -3 3 -87z"/>
<path d="M1346 488 c-53 -75 -35 -228 28 -244 37 -9 57 -2 80 29 30 41 30 163
0 204 -29 38 -85 44 -108 11z"/>
<path d="M2394 479 c-27 -30 -33 -151 -9 -196 33 -61 103 -54 125 13 l12 37
62 -7 c33 -4 70 -8 81 -9 18 -2 20 5 23 62 l3 64 -43 -6 c-24 -3 -62 -9 -84
-13 -38 -6 -43 -4 -49 17 -18 60 -83 80 -121 38z"/>
</g>
</svg>
