<?xml version="1.0" standalone="no"?>
<!DOCTYPE svg PUBLIC "-//W3C//DTD SVG 20010904//EN"
 "http://www.w3.org/TR/2001/REC-SVG-20010904/DTD/svg10.dtd">
<svg version="1.0" xmlns="http://www.w3.org/2000/svg"
 width="170.000000pt" height="106.000000pt" viewBox="0 0 170.000000 106.000000"
 preserveAspectRatio="xMidYMid meet">

<g transform="translate(0.000000,106.000000) scale(0.100000,-0.100000)"
fill="#000000" opacity="0.30" stroke="none">
<path d="M37 1036 c-14 -13 -29 -35 -32 -48 -3 -12 -4 -227 -3 -475 l3 -453
28 -27 27 -28 778 -3 c817 -3 821 -2 844 42 9 19 8 18 -16 -4 l-28 -25 -774
-3 c-846 -3 -822 -4 -844 54 -6 15 -10 213 -10 475 l0 451 29 29 29 29 785 0
c758 0 786 -1 808 -19 l24 -19 5 -474 5 -473 3 468 2 469 -29 29 -29 29 -790
0 -789 0 -26 -24z"/>
<path d="M431 930 c-194 -70 -317 -275 -282 -471 39 -222 222 -369 447 -357
96 5 182 41 255 108 l44 39 -44 1 c-40 0 -70 18 -71 43 0 4 33 7 73 7 68 0 97
10 97 32 0 4 -45 8 -99 8 -99 0 -111 4 -111 41 0 5 52 9 115 9 90 0 117 3 121
14 5 12 9 12 32 0 32 -16 68 -18 77 -4 3 6 -5 10 -19 10 -38 0 -55 10 -71 41
-19 36 -19 70 0 116 13 31 13 34 0 23 -8 -7 -15 -18 -15 -25 0 -7 -7 -18 -15
-25 -8 -7 -20 -39 -27 -71 -11 -52 -15 -59 -36 -59 -22 0 -24 3 -18 33 4 17 9
58 13 90 6 57 6 57 37 55 35 -2 59 9 51 23 -9 14 -252 12 -261 -3 -4 -6 -2
-14 4 -16 17 -5 15 -42 -2 -42 -21 0 -29 -81 -9 -95 25 -18 9 -45 -26 -45 -40
0 -45 22 -29 125 12 72 15 80 37 83 13 2 26 12 28 23 5 17 15 19 124 19 66 0
119 3 119 6 0 3 -5 14 -10 25 -9 17 -22 19 -105 19 -52 0 -95 3 -95 8 1 27 21
35 89 33 39 -1 71 1 71 4 0 3 -5 15 -10 26 -8 15 -21 19 -57 19 l-46 0 22 24
22 23 -52 34 c-29 18 -75 41 -103 51 -71 24 -195 23 -265 -2z m-143 -355 c-6
-65 5 -63 23 5 13 49 14 50 51 50 45 0 45 2 21 -127 -16 -87 -19 -93 -41 -93
-22 0 -24 3 -18 38 17 97 15 105 -10 34 -20 -55 -30 -72 -43 -70 -12 2 -17 18
-20 68 l-4 65 -11 -65 c-10 -57 -14 -65 -35 -68 -20 -3 -23 0 -18 20 3 12 11
62 18 111 l12 87 40 0 39 0 -4 -55z m220 9 c18 -12 22 -24 21 -62 -1 -26 -4
-60 -8 -77 -5 -27 -10 -30 -46 -32 -73 -4 -85 3 -85 47 0 45 26 70 73 70 16 0
26 4 22 10 -3 6 -22 10 -41 10 -27 0 -34 4 -34 19 0 18 15 26 60 30 9 0 26 -6
38 -15z m140 -11 c3 -20 -1 -23 -27 -23 -38 0 -40 -12 -6 -34 19 -12 25 -25
25 -51 0 -40 -20 -55 -74 -55 -31 0 -36 3 -36 23 0 20 4 23 35 19 39 -5 47 11
15 28 -27 15 -43 47 -36 76 12 46 98 59 104 17z m213 6 c14 -14 19 -30 17 -57
-3 -36 -3 -37 -44 -34 -23 2 -45 -1 -48 -6 -11 -18 23 -35 55 -28 27 5 30 3
27 -17 -2 -18 -10 -23 -41 -25 -59 -5 -87 18 -87 73 0 54 15 89 44 103 33 16
54 14 77 -9z"/>
<path d="M435 480 c-8 -13 3 -30 20 -30 11 0 25 20 25 36 0 9 -39 4 -45 -6z"/>
<path d="M797 544 c-13 -13 -7 -20 19 -22 17 -1 24 2 21 11 -4 14 -30 21 -40
11z"/>
<path d="M1467 614 c-4 -4 -7 -14 -7 -23 0 -11 3 -12 11 -4 6 6 10 16 7 23 -2
6 -7 8 -11 4z"/>
<path d="M1066 582 c-3 -6 8 -12 24 -14 19 -3 29 -1 27 6 -5 14 -43 20 -51 8z"/>
<path d="M1130 551 c0 -16 7 -19 45 -19 25 1 45 5 45 10 0 4 -18 8 -41 8 -24
0 -38 4 -34 10 3 6 1 10 -4 10 -6 0 -11 -9 -11 -19z"/>
<path d="M1267 528 c-3 -24 -9 -62 -13 -85 -6 -42 -6 -43 22 -42 26 0 27 1 8
9 -20 8 -20 11 -9 84 7 42 9 76 5 76 -4 0 -10 -19 -13 -42z"/>
<path d="M1349 545 c-11 -12 -14 -29 -9 -71 7 -62 29 -89 65 -80 11 3 33 6 49
6 49 0 20 13 -31 14 -43 1 -49 4 -62 31 -11 23 -12 38 -3 69 12 47 11 51 -9
31z"/>
<path d="M1420 541 c0 -6 5 -11 10 -11 6 0 10 -14 10 -32 0 -23 3 -29 11 -21
16 16 7 67 -13 71 -10 2 -18 -1 -18 -7z"/>
<path d="M1170 479 c0 -5 5 -7 10 -4 6 3 10 1 10 -4 0 -6 5 -11 10 -11 6 0 10
7 10 15 0 8 -9 15 -20 15 -11 0 -20 -5 -20 -11z"/>
<path d="M1113 446 c2 -44 23 -64 53 -51 18 8 18 9 -3 12 -26 5 -39 20 -46 53
-3 15 -4 9 -4 -14z"/>
<path d="M1190 410 c0 -5 12 -10 28 -9 24 0 25 1 7 9 -27 12 -35 12 -35 0z"/>
</g>
</svg>
