<?xml version="1.0" standalone="no"?>
<!DOCTYPE svg PUBLIC "-//W3C//DTD SVG 20010904//EN"
 "http://www.w3.org/TR/2001/REC-SVG-20010904/DTD/svg10.dtd">
<svg version="1.0" xmlns="http://www.w3.org/2000/svg"
 width="920.000000pt" height="552.000000pt" viewBox="0 0 920.000000 552.000000"
 preserveAspectRatio="xMidYMid meet">

<g transform="translate(0.000000,552.000000) scale(0.100000,-0.100000)"
fill="#000000" opacity="0.30" stroke="none">
<path d="M2545 5509 c-1004 -79 -1883 -696 -2299 -1614 -261 -578 -316 -1252
-150 -1860 86 -315 227 -613 415 -877 100 -141 166 -217 308 -358 145 -144
250 -231 406 -335 442 -295 921 -446 1465 -462 633 -18 1218 172 1755 572 113
84 445 401 445 425 0 6 -102 10 -284 10 l-285 0 -44 58 c-59 77 -147 201 -147
207 0 3 218 5 484 5 l483 0 39 62 c21 35 58 101 82 148 l44 85 -650 3 c-503 2
-652 5 -659 15 -15 19 -103 242 -103 260 0 16 57 17 755 17 l755 0 11 28 c6
15 30 107 54 206 l44 178 -21 52 c-65 164 -62 455 7 656 18 51 25 91 23 125
l-3 50 -23 -50 c-13 -27 -35 -98 -50 -156 l-26 -107 -39 0 c-75 -1 -111 -45
-152 -187 -14 -50 -35 -146 -45 -215 -11 -69 -31 -188 -45 -265 -14 -77 -25
-143 -25 -147 0 -5 -74 -8 -165 -8 l-165 0 5 23 c5 23 185 1101 185 1111 0 3
65 6 143 6 l144 0 -8 -47 c-13 -77 -11 -78 33 -28 50 57 125 95 187 95 l43 0
-7 48 c-3 26 -9 57 -12 70 l-5 22 -831 -2 -831 -3 -7 -35 c-4 -19 -10 -54 -14
-77 l-6 -43 70 0 c39 0 71 -3 71 -7 0 -9 -30 -218 -36 -250 -4 -22 -9 -23 -83
-23 l-80 0 -10 -52 c-31 -148 -81 -476 -76 -495 7 -30 63 -47 126 -38 49 7 50
6 45 -17 -3 -12 -12 -61 -21 -108 -9 -47 -20 -95 -25 -106 -18 -44 -175 -75
-272 -55 -102 22 -157 77 -179 178 -10 51 -9 62 10 107 11 28 32 123 45 211
23 152 84 511 124 730 l18 100 136 3 136 3 11 57 c6 31 22 91 34 132 l24 75
757 3 758 2 -6 35 c-7 35 -61 171 -93 231 l-16 30 -638 -4 c-549 -4 -639 -2
-639 10 0 13 129 247 152 275 8 10 124 13 494 15 l485 3 -50 75 c-27 41 -75
105 -106 142 l-56 68 -272 2 -272 3 137 137 138 137 -77 67 c-343 299 -745
491 -1255 599 -84 18 -358 45 -455 45 -58 0 -73 3 -73 15 0 17 -27 18 -195 4z
m-1613 -2321 c0 -145 2 -285 4 -313 1 -27 3 -97 3 -155 l1 -105 136 400 c75
220 138 408 141 418 5 16 26 17 249 17 169 0 244 -3 244 -11 0 -11 -17 -117
-75 -462 -19 -114 -50 -300 -69 -415 -19 -114 -46 -275 -60 -358 -15 -83 -26
-154 -26 -158 0 -9 -308 -8 -313 2 -3 4 1 43 9 87 8 44 26 159 40 255 13 96
36 240 49 320 22 135 28 171 40 275 5 42 -9 8 -91 -220 -20 -55 -51 -140 -69
-190 -18 -49 -65 -180 -104 -290 -40 -110 -76 -210 -81 -222 -9 -22 -15 -23
-115 -23 l-105 0 -1 58 c0 31 -2 86 -4 122 -1 36 -6 223 -10 415 -7 343 -15
433 -29 324 -12 -90 -16 -118 -46 -284 -16 -88 -31 -182 -35 -210 -3 -27 -21
-133 -39 -235 l-33 -185 -141 -3 c-78 -1 -142 0 -142 4 0 3 52 317 115 698 63
380 115 695 115 699 0 4 99 7 220 7 l220 0 2 -262z m2320 31 c29 -6 56 -14 59
-18 4 -3 -3 -64 -15 -136 l-21 -130 -30 2 c-249 12 -302 5 -324 -43 -30 -66
-7 -96 119 -157 148 -71 205 -147 217 -287 14 -165 -51 -306 -168 -366 -85
-43 -151 -54 -314 -54 -165 1 -279 17 -298 44 -10 14 -8 42 10 149 12 73 22
133 23 133 0 1 34 -7 75 -17 217 -51 354 -25 357 70 1 43 -20 63 -119 113
-104 52 -175 114 -211 182 -23 45 -26 63 -27 146 0 71 5 109 20 149 37 101
134 183 255 217 57 16 321 18 392 3z m-1000 -10 c72 -16 160 -61 193 -101 16
-18 40 -58 54 -88 37 -79 34 -190 -12 -495 -20 -132 -45 -296 -55 -365 l-18
-125 -136 -3 -137 -3 6 53 6 52 -34 -25 c-88 -67 -219 -107 -303 -93 -85 14
-170 74 -208 148 -44 86 -40 292 7 386 81 160 238 238 495 246 l125 4 3 31 c9
85 -29 112 -163 115 -100 3 -191 -9 -277 -36 -37 -11 -58 -14 -61 -7 -5 15 39
247 49 257 11 9 164 47 214 53 78 8 202 6 252 -4z m2243 -34 c126 -33 204 -97
258 -214 27 -56 32 -80 35 -161 4 -82 -12 -218 -33 -290 -4 -13 -46 -15 -302
-15 l-298 0 -3 -34 c-5 -47 4 -74 35 -111 46 -55 102 -74 223 -73 89 0 121 5
205 31 55 17 101 29 104 27 5 -6 -49 -246 -60 -267 -11 -20 -54 -33 -154 -48
-146 -21 -253 -11 -384 36 -140 51 -244 181 -272 338 -15 87 -6 279 16 361 27
101 90 219 151 285 71 76 102 98 178 126 75 28 212 32 301 9z"/>
<path d="M2001 2551 c-29 -10 -67 -33 -84 -49 -26 -26 -31 -40 -35 -91 -4 -56
-2 -62 26 -91 25 -25 38 -30 77 -30 105 0 171 78 199 231 6 36 6 36 -31 43
-60 9 -94 7 -152 -13z"/>
<path d="M4297 2936 c-52 -19 -76 -42 -103 -101 -42 -88 -46 -85 131 -85 l155
0 0 53 c0 65 -27 113 -75 133 -42 17 -59 17 -108 0z"/>
</g>
</svg>
