<?xml version="1.0" standalone="no"?>
<!DOCTYPE svg PUBLIC "-//W3C//DTD SVG 20010904//EN"
 "http://www.w3.org/TR/2001/REC-SVG-20010904/DTD/svg10.dtd">
<svg version="1.0" xmlns="http://www.w3.org/2000/svg"
 width="230.000000pt" height="198.000000pt" viewBox="0 0 230.000000 198.000000"
 preserveAspectRatio="xMidYMid meet">

<g transform="translate(0.000000,198.000000) scale(0.100000,-0.100000)"
fill="#000000" opacity="0.3" stroke="none">
<path d="M1032 1970 c-227 -41 -430 -192 -531 -397 -65 -129 -91 -286 -71
-418 24 -159 98 -310 205 -421 56 -57 178 -141 183 -125 2 5 -13 51 -33 103
-90 229 -108 349 -86 575 21 219 66 323 137 323 41 0 70 -13 83 -39 6 -10 18
-65 27 -122 9 -57 29 -148 45 -202 79 -266 119 -481 119 -644 0 -61 -11 -66
-66 -32 -83 51 -99 118 -124 518 -11 179 -23 346 -26 371 -9 72 -51 102 -87
62 -22 -24 -44 -123 -58 -262 -18 -188 3 -332 75 -511 19 -48 40 -107 47 -132
6 -25 17 -48 25 -51 21 -8 8 41 -47 186 -56 146 -79 261 -79 397 0 98 21 269
41 329 13 38 46 44 54 10 3 -13 16 -187 30 -388 27 -399 35 -443 92 -510 46
-53 105 -74 189 -67 111 8 177 74 203 202 6 28 22 211 35 408 13 202 28 363
34 369 34 34 62 -50 82 -244 19 -189 -5 -339 -86 -534 -18 -45 -36 -100 -40
-123 -6 -36 -4 -41 10 -35 9 3 16 17 16 31 0 14 20 75 44 136 67 169 77 216
83 372 5 138 -9 280 -37 378 -18 62 -79 76 -100 23 -5 -14 -19 -177 -30 -363
-27 -446 -42 -512 -129 -570 -63 -42 -64 -39 -59 115 6 149 29 268 99 512 21
74 47 186 58 249 24 134 41 161 103 161 51 0 82 -33 107 -115 29 -92 41 -199
41 -351 0 -162 -17 -255 -70 -379 -42 -101 -62 -165 -51 -165 20 0 154 105
202 158 72 80 115 154 152 260 29 81 31 97 32 227 0 150 -14 214 -72 330 -91
183 -272 330 -468 380 -75 20 -233 27 -303 15z m141 -270 c12 -32 25 -44 59
-59 l43 -19 -42 -17 c-32 -13 -46 -26 -60 -56 -18 -43 -33 -51 -33 -18 0 27
-52 79 -79 79 -31 0 -26 16 9 30 36 15 70 55 70 81 0 32 16 21 33 -21z"/>
<path d="M106 324 c-9 -8 -16 -11 -16 -5 0 6 -20 11 -45 11 -38 0 -45 -3 -45
-20 0 -13 7 -20 20 -20 18 0 20 -7 20 -85 0 -84 0 -85 25 -85 24 0 25 2 25 75
0 68 2 76 25 91 23 15 27 15 50 0 23 -15 25 -23 25 -91 0 -73 1 -75 25 -75 24
0 25 2 25 75 0 68 2 76 24 90 19 13 29 14 45 5 23 -12 23 -15 21 -107 l-1 -63
45 0 c42 0 46 2 46 25 0 18 -5 25 -20 25 -18 0 -20 7 -20 63 0 53 -4 67 -23
85 -30 28 -89 30 -116 3 -19 -19 -20 -19 -37 0 -21 23 -76 25 -98 3z"/>
<path d="M494 306 c-88 -88 2 -223 122 -184 28 10 39 19 39 33 0 21 -8 22 -72
9 -24 -5 -36 -1 -55 18 l-23 23 88 3 87 3 0 32 c-1 56 -49 97 -115 97 -29 0
-45 -8 -71 -34z m117 -25 c32 -26 22 -33 -47 -29 l-59 3 23 23 c27 27 52 28
83 3z"/>
<path d="M841 323 c-14 -9 -21 -11 -17 -5 5 9 -8 12 -47 12 -50 0 -55 -2 -50
-20 3 -13 14 -20 29 -20 23 0 24 -3 24 -59 0 -58 -1 -60 -27 -63 -20 -2 -29
-9 -31 -25 -3 -22 -1 -23 87 -23 90 0 91 0 91 25 0 22 -4 25 -35 25 l-35 0 0
49 c0 40 4 53 22 65 30 21 36 20 40 -6 2 -17 10 -23 27 -23 36 0 48 27 28 59
-21 31 -69 35 -106 9z"/>
<path d="M1024 306 c-85 -85 -2 -218 116 -186 47 13 67 34 51 54 -10 12 -16
12 -43 -1 -39 -20 -76 -8 -98 30 -13 24 -13 30 0 55 12 20 24 28 51 30 33 3
37 1 42 -27 8 -37 40 -43 57 -11 23 42 -30 90 -98 90 -37 0 -50 -6 -78 -34z"/>
<path d="M1662 324 c-12 -8 -22 -10 -22 -5 0 6 -22 11 -50 11 -43 0 -50 -3
-50 -20 0 -16 7 -20 30 -20 l30 0 0 -60 0 -60 -30 0 c-25 0 -30 -4 -30 -25 0
-25 1 -25 90 -25 89 0 90 0 90 25 0 22 -4 25 -35 25 l-35 0 0 48 c0 35 5 54
18 65 25 23 40 21 44 -5 4 -29 37 -36 55 -12 17 24 17 30 -7 54 -24 24 -67 26
-98 4z"/>
<path d="M2104 306 c-29 -29 -34 -41 -34 -79 0 -104 119 -148 197 -75 29 27
39 80 23 119 -19 45 -56 69 -107 69 -38 0 -50 -5 -79 -34z m129 -38 c49 -57
-17 -133 -84 -97 -63 33 -22 140 46 122 11 -2 28 -14 38 -25z"/>
<path d="M1230 310 c0 -15 7 -20 25 -20 24 0 25 -2 25 -63 0 -49 4 -68 20 -84
28 -31 56 -37 90 -19 17 8 30 10 30 5 0 -5 20 -9 45 -9 41 0 45 2 45 25 0 18
-5 25 -20 25 -18 0 -20 7 -20 80 0 79 0 80 -25 80 -24 0 -25 -2 -25 -69 0 -76
-15 -105 -53 -99 -30 4 -47 44 -47 111 l0 57 -45 0 c-38 0 -45 -3 -45 -20z"/>
<path d="M1790 310 c0 -13 7 -20 18 -20 13 0 27 -22 52 -82 34 -84 35 -101 5
-171 -7 -16 -4 -18 20 -15 25 3 31 13 79 135 38 100 55 133 69 133 10 0 17 8
17 20 0 17 -7 20 -50 20 -43 0 -50 -3 -50 -19 0 -11 5 -21 11 -23 7 -2 1 -24
-14 -58 l-24 -55 -22 48 c-23 54 -26 67 -11 67 6 0 10 9 10 20 0 18 -7 20 -55
20 -48 0 -55 -2 -55 -20z"/>
</g>
</svg>
