<?xml version="1.0" standalone="no"?>
<!DOCTYPE svg PUBLIC "-//W3C//DTD SVG 20010904//EN"
 "http://www.w3.org/TR/2001/REC-SVG-20010904/DTD/svg10.dtd">
<svg version="1.0" xmlns="http://www.w3.org/2000/svg"
 width="404.000000pt" height="316.000000pt" viewBox="0 0 404.000000 316.000000"
 preserveAspectRatio="xMidYMid meet">
<metadata>
Created by potrace 1.16, written by Peter Selinger 2001-2019
</metadata>
<g transform="translate(0.000000,316.000000) scale(0.100000,-0.100000)"
fill="#000000" opacity="0.30" stroke="none">
<path d="M1165 3021 c-48 -22 -69 -44 -90 -94 -13 -32 -15 -152 -15 -964 0
-885 1 -930 19 -969 10 -23 36 -54 57 -70 l37 -29 861 -3 c474 -2 876 0 894 3
40 7 101 59 118 102 12 26 14 205 14 967 0 635 -3 944 -11 963 -15 42 -68 92
-109 103 -22 6 -357 10 -885 10 -803 0 -852 -1 -890 -19z m1203 -649 c-35 -81
-303 -581 -308 -575 -4 4 -63 114 -130 243 -67 129 -135 259 -151 288 l-29 52
311 0 c171 0 309 -3 307 -8z m-489 -525 c83 -158 151 -290 151 -292 0 -3 -137
-5 -305 -5 -168 0 -305 3 -305 6 0 6 98 196 237 462 36 68 67 122 68 120 2 -2
71 -133 154 -291z m679 -7 l149 -285 -154 -3 c-84 -1 -222 -1 -307 0 l-154 3
151 292 c83 161 155 289 159 285 3 -4 74 -135 156 -292z"/>
<path d="M990 356 l0 -166 30 0 29 0 3 113 3 112 44 -112 c38 -96 47 -113 66
-113 19 0 28 17 66 113 l44 112 3 -112 3 -113 29 0 30 0 0 165 0 165 -39 0
-39 0 -45 -112 c-25 -62 -48 -113 -52 -113 -4 0 -27 50 -51 110 l-43 110 -40
3 -41 3 0 -165z"/>
<path d="M1670 355 l0 -165 30 0 c20 0 30 5 30 15 0 19 14 19 30 0 14 -17 72
-20 101 -5 33 18 52 68 47 127 -5 59 -31 97 -75 108 -27 6 -83 -11 -83 -26 0
-5 -4 -9 -10 -9 -6 0 -10 27 -10 60 l0 60 -30 0 -30 0 0 -165z"/>
<path d="M2141 502 c-47 -25 -72 -77 -72 -145 0 -111 50 -167 149 -167 64 0
106 20 127 60 21 41 19 50 -11 50 -16 0 -37 -12 -54 -30 -50 -54 -120 -33
-140 41 -20 73 9 141 66 155 34 9 72 -10 86 -41 8 -18 19 -25 40 -25 39 0 37
30 -6 77 -30 33 -39 37 -92 40 -45 3 -67 0 -93 -15z"/>
<path d="M2920 355 l0 -165 30 0 30 0 0 83 c0 90 8 107 50 107 42 0 50 -17 50
-107 l0 -83 30 0 30 0 0 99 c0 82 -3 103 -19 122 -24 30 -89 33 -120 5 l-21
-19 0 61 0 62 -30 0 -30 0 0 -165z"/>
<path d="M1450 423 c-19 -10 -40 -29 -47 -43 -28 -56 -8 -156 36 -180 34 -18
116 -12 144 11 54 41 56 148 5 197 -33 30 -95 37 -138 15z"/>
<path d="M2470 433 c-24 -9 -60 -45 -60 -60 0 -18 48 -17 67 3 9 8 27 14 42
12 20 -2 27 -9 29 -30 3 -27 2 -28 -46 -28 -88 0 -134 -68 -82 -120 24 -24 91
-27 110 -5 7 8 16 15 21 15 5 0 9 -7 9 -15 0 -10 10 -15 30 -15 l30 0 0 94 c0
84 -3 98 -23 121 -17 20 -34 28 -67 31 -25 2 -52 1 -60 -3z"/>
<path d="M2725 433 c-47 -12 -71 -58 -53 -97 11 -25 38 -40 96 -51 18 -4 36
-14 39 -22 12 -30 -54 -46 -77 -18 -14 17 -70 21 -70 5 0 -6 11 -22 25 -35 20
-20 34 -25 78 -25 70 0 107 26 107 75 0 39 -15 50 -89 69 -36 8 -46 16 -46 31
0 25 46 33 65 11 13 -17 70 -22 70 -7 0 6 -10 21 -22 35 -24 26 -82 40 -123
29z"/>
<path d="M1950 310 l0 -120 35 0 35 0 0 120 0 120 -35 0 -35 0 0 -120z"/>
</g>
</svg>
