<?xml version="1.0" standalone="no"?>
<!DOCTYPE svg PUBLIC "-//W3C//DTD SVG 20010904//EN"
 "http://www.w3.org/TR/2001/REC-SVG-20010904/DTD/svg10.dtd">
<svg version="1.0" xmlns="http://www.w3.org/2000/svg"
 width="512.000000pt" height="512.000000pt" viewBox="0 0 512.000000 512.000000"
 preserveAspectRatio="xMidYMid meet">

<g transform="translate(0.000000,512.000000) scale(0.100000,-0.100000)"
fill="#000000" opacity="0.30" stroke="none">
<path d="M2666 4544 c-48 -17 -76 -40 -371 -299 -33 -29 -91 -79 -130 -112
-38 -32 -83 -70 -99 -83 -17 -14 -50 -43 -75 -65 -26 -23 -100 -85 -166 -140
-66 -55 -122 -102 -125 -106 -3 -3 -90 -77 -195 -164 -104 -87 -222 -186 -260
-219 -39 -34 -91 -77 -115 -96 -57 -46 -225 -185 -271 -224 -19 -17 -53 -45
-75 -62 -21 -18 -115 -95 -209 -173 -191 -159 -225 -202 -225 -284 0 -94 25
-121 380 -407 78 -63 173 -140 210 -170 37 -30 84 -68 104 -85 35 -28 207
-170 466 -384 176 -146 335 -278 560 -466 118 -99 222 -186 230 -193 15 -12
97 -82 156 -132 134 -115 178 -133 266 -111 29 8 71 23 93 34 58 29 279 219
679 586 205 187 823 797 852 839 l16 24 -84 -7 c-47 -4 -125 -2 -178 4 -95 11
-329 58 -348 70 -6 3 -13 18 -17 32 l-6 26 133 6 c162 8 315 34 468 81 l45 13
2 -57 3 -57 -161 -13 c-92 -7 -222 -10 -303 -7 -103 4 -135 2 -121 -5 34 -20
348 -22 453 -4 50 9 96 16 101 16 6 0 13 -20 17 -45 3 -25 10 -45 15 -45 5 0
9 5 9 10 0 6 10 20 23 32 80 80 303 331 325 368 33 56 36 132 7 176 -11 16
-22 34 -25 41 -5 10 -183 214 -240 274 -14 14 -43 46 -64 70 -294 331 -936
967 -1292 1279 -21 19 -78 69 -124 111 -88 79 -117 98 -191 123 -54 19 -92 19
-143 0z m-791 -1184 c4 -6 -20 -10 -64 -10 -41 0 -71 4 -71 10 0 6 28 10 64
10 36 0 68 -4 71 -10z m325 0 c0 -6 -28 -10 -65 -10 -62 0 -66 -1 -76 -27 -5
-16 -26 -67 -46 -115 l-37 -87 -12 32 c-7 18 -26 65 -43 106 -17 41 -29 76
-26 79 2 3 14 -17 26 -44 40 -93 50 -114 57 -114 4 0 20 31 35 69 44 108 57
121 128 121 33 0 59 -4 59 -10z m359 -15 c27 -13 61 -39 75 -57 l25 -32 33 36
c51 57 101 78 183 78 51 0 80 -5 107 -20 21 -11 44 -17 51 -14 16 6 27 -19 84
-181 19 -55 50 -141 69 -192 19 -51 34 -98 34 -105 0 -26 -19 9 -46 87 -15 44
-35 98 -45 120 l-18 40 0 -58 c-1 -32 -7 -73 -15 -92 -18 -42 -73 -96 -119
-119 -50 -23 -157 -21 -205 3 -40 21 -102 78 -102 95 0 5 -18 -9 -40 -32 -59
-61 -106 -82 -185 -82 -77 0 -125 21 -179 76 l-36 37 -1 -44 c-1 -24 -6 3 -11
61 -5 58 -5 170 -1 250 4 80 9 128 11 106 l3 -39 33 32 c57 55 93 70 174 70
58 1 82 -4 121 -24z m636 15 c4 -6 -18 -10 -59 -10 -36 0 -68 5 -71 10 -4 6
18 10 59 10 36 0 68 -4 71 -10z m330 0 c-3 -5 -37 -10 -74 -10 l-68 0 -13 -42
c-7 -24 -24 -76 -37 -116 -14 -41 -28 -95 -32 -120 l-8 -47 -7 40 c-4 22 -23
89 -42 148 -19 60 -33 114 -31 120 2 6 18 -35 37 -91 18 -56 36 -102 40 -102
8 0 30 55 56 140 23 76 42 90 121 90 40 0 62 -4 58 -10z m-1786 -277 c0 -137
-4 -233 -10 -233 -5 0 -9 101 -9 248 0 166 4 242 10 232 6 -9 10 -110 9 -247z
m1803 224 c-9 -18 -88 -234 -153 -419 -7 -21 -16 -38 -20 -38 -4 0 15 64 43
143 28 78 61 171 73 207 35 100 55 144 62 137 3 -4 1 -17 -5 -30z m-1635 -337
l19 -55 55 -6 54 -6 -52 -1 c-28 -1 -55 3 -58 8 -13 20 -24 9 -28 -27 -3 -30
-4 -26 -5 17 -1 30 -5 73 -9 95 -8 52 1 43 24 -25z m163 -35 c0 -50 -4 -85
-10 -85 -5 0 -10 15 -10 34 0 19 -4 36 -10 38 -8 2 19 98 27 98 2 0 3 -38 3
-85z m-939 -35 c11 -36 30 -101 43 -145 13 -44 30 -104 38 -134 l14 -54 99
174 c146 256 117 229 246 229 100 0 110 -2 105 -17 -3 -10 -12 -70 -21 -133
-29 -212 -65 -474 -81 -587 l-17 -113 -114 0 -115 0 6 26 c4 14 13 76 21 137
8 62 21 137 29 167 9 30 14 55 13 57 -2 1 -32 -54 -67 -123 -35 -69 -68 -128
-73 -131 -10 -6 -145 -8 -152 -2 -2 3 -17 59 -34 124 -25 104 -29 114 -30 74
-1 -25 -10 -104 -21 -175 -11 -71 -20 -135 -20 -141 0 -10 -28 -13 -108 -13
-60 0 -111 2 -114 5 -2 3 3 58 13 122 9 65 29 204 43 308 15 105 34 241 42
303 l16 113 110 -3 110 -3 19 -65z m739 -70 c0 -6 -26 -10 -59 -10 -33 0 -63
5 -66 10 -4 6 18 10 59 10 37 0 66 -4 66 -10z m330 0 c0 -6 -26 -10 -59 -10
-33 0 -63 5 -66 10 -4 6 18 10 59 10 37 0 66 -4 66 -10z m1150 0 c0 -6 -27
-10 -60 -10 -33 0 -60 4 -60 10 0 6 27 10 60 10 33 0 60 -4 60 -10z m986 -185
c14 -77 32 -173 40 -214 22 -114 22 -113 -43 -138 -96 -37 -260 -72 -407 -88
-172 -19 -196 -19 -196 -1 0 9 19 16 61 20 98 11 466 114 493 137 7 7 -33 255
-49 306 -3 9 -21 5 -62 -13 -121 -54 -356 -124 -370 -110 -11 11 8 23 82 51
146 58 287 137 375 210 l45 38 3 -29 c1 -16 14 -92 28 -169z m-2246 66 c48
-39 80 -97 80 -149 0 -53 -27 -236 -42 -281 -16 -50 -81 -115 -141 -142 -74
-33 -183 -33 -251 0 -62 31 -106 96 -106 158 0 64 29 249 46 288 19 47 69 101
118 130 86 50 231 48 296 -4z m1005 34 c53 -9 103 -48 126 -99 68 -150 -65
-317 -243 -304 -62 5 -73 -5 -42 -36 20 -21 93 -21 122 -1 21 15 24 14 74 -34
l52 -50 -24 -26 c-40 -43 -123 -77 -199 -83 -59 -4 -77 -1 -124 21 -58 26
-111 85 -124 136 -9 36 25 265 47 315 36 83 123 150 210 164 30 5 62 8 70 7 8
-2 33 -6 55 -10z m-473 -23 c20 -13 46 -38 58 -57 40 -65 41 -88 16 -259 -14
-89 -28 -188 -33 -221 l-8 -60 -108 -3 -109 -3 6 28 c14 69 45 294 48 348 3
57 2 59 -25 69 -19 7 -30 7 -38 -1 -6 -6 -19 -73 -29 -150 -11 -76 -24 -173
-31 -215 l-11 -78 -104 0 c-77 0 -104 3 -104 13 0 37 60 479 76 553 2 12 14
25 26 29 102 32 120 35 223 32 95 -2 115 -5 147 -25z m865 -19 c-3 -27 -15
-109 -26 -183 -11 -74 -21 -157 -23 -185 l-3 -50 40 0 c49 0 45 -11 80 250 15
110 27 201 28 201 1 1 49 4 105 6 l104 4 -6 -36 c-3 -19 -13 -91 -21 -160 -59
-457 -75 -518 -152 -591 -92 -87 -243 -92 -365 -12 -21 14 -38 29 -38 34 0 4
10 18 23 31 12 13 34 38 50 57 16 19 33 30 40 27 6 -4 23 -13 37 -21 36 -21
83 -18 114 6 14 11 26 24 26 28 0 4 -27 5 -59 3 -73 -5 -138 22 -178 75 -35
46 -41 122 -20 264 9 57 21 145 28 196 l12 92 91 4 c50 1 97 4 105 5 11 2 13
-8 8 -45z m-1023 -178 c-4 -8 -7 -15 -9 -15 -2 0 -5 7 -9 15 -3 9 0 15 9 15 9
0 12 -6 9 -15z m1029 -212 c-7 -2 -19 -2 -25 0 -7 3 -2 5 12 5 14 0 19 -2 13
-5z"/>
<path d="M2380 3351 c-52 -17 -90 -42 -117 -78 -28 -36 -28 -38 -28 -177 0
-131 2 -143 23 -173 13 -18 44 -45 70 -60 39 -24 59 -28 118 -28 94 0 157 36
194 110 l24 49 8 -30 c4 -16 21 -44 38 -62 49 -51 86 -66 165 -67 59 0 78 4
117 28 26 15 59 44 73 65 23 34 25 45 25 160 0 166 -20 207 -125 253 -90 40
-215 8 -272 -70 -13 -16 -23 -40 -23 -51 0 -12 -4 -18 -10 -15 -5 3 -10 13
-10 22 0 27 -49 82 -92 104 -45 23 -138 33 -178 20z m118 -143 c8 -8 12 -48
12 -113 0 -113 -6 -125 -58 -125 -67 0 -72 9 -72 123 0 67 4 107 12 115 7 7
30 12 53 12 23 0 46 -5 53 -12z m431 3 c18 -12 19 -204 1 -226 -14 -17 -57
-20 -94 -5 -26 9 -26 11 -26 113 0 67 4 107 12 115 14 14 86 16 107 3z"/>
<path d="M2402 3198 c-8 -8 -12 -46 -12 -104 0 -99 3 -104 59 -104 43 0 51 16
51 110 0 95 -7 110 -55 110 -17 0 -36 -5 -43 -12z"/>
<path d="M2841 3201 c-12 -8 -17 -97 -11 -204 0 -4 21 -7 48 -5 l47 3 3 94 c2
60 -1 98 -9 107 -13 16 -57 18 -78 5z"/>
<path d="M1870 2535 c-6 -14 -10 -41 -10 -58 0 -18 -5 -61 -10 -96 -8 -46 -8
-67 1 -77 14 -18 53 -18 67 -1 12 14 29 113 34 197 l3 55 -38 3 c-32 3 -38 0
-47 -23z"/>
<path d="M2974 2568 c-21 -10 -40 -70 -28 -90 8 -13 48 -9 72 8 27 18 31 78 6
88 -20 8 -24 7 -50 -6z"/>
</g>
</svg>
