<?xml version="1.0" standalone="no"?>
<!DOCTYPE svg PUBLIC "-//W3C//DTD SVG 20010904//EN"
 "http://www.w3.org/TR/2001/REC-SVG-20010904/DTD/svg10.dtd">
<svg version="1.0" xmlns="http://www.w3.org/2000/svg"
 width="1280.000000pt" height="720.000000pt" viewBox="0 0 1280.000000 720.000000"
 preserveAspectRatio="xMidYMid meet">
<metadata>
Created by potrace 1.16, written by Peter Selinger 2001-2019
</metadata>
<g transform="translate(0.000000,720.000000) scale(0.100000,-0.100000)"
fill="#000000" opacity="0.30" stroke="none">
<path d="M8063 6080 c-51 -50 -93 -94 -93 -98 0 -5 28 -21 63 -37 54 -25 193
-108 207 -124 3 -3 31 -23 63 -44 71 -46 268 -241 320 -317 110 -159 186 -294
222 -393 68 -184 19 143 -52 347 -107 310 -282 534 -563 720 -30 20 -59 36
-65 36 -5 0 -52 -41 -102 -90z"/>
<path d="M7432 5988 c-35 -49 -75 -110 -174 -269 -20 -33 -44 -67 -53 -75 -8
-9 -22 -29 -31 -45 -14 -28 -104 -171 -121 -194 -5 -5 -17 -27 -28 -48 -11
-20 -29 -47 -40 -60 -28 -30 -65 -95 -65 -113 0 -8 -7 -14 -15 -14 -8 0 -22
-17 -31 -37 -10 -21 -24 -46 -32 -56 -8 -9 -13 -20 -10 -23 6 -6 61 -15 197
-34 41 -6 83 -16 93 -21 11 -6 40 -14 66 -19 26 -4 89 -19 140 -32 50 -13 92
-22 92 -20 0 3 -24 29 -54 58 -84 83 -145 229 -145 349 0 89 44 227 87 273 6
7 12 17 12 20 0 7 44 53 91 96 29 26 131 88 184 112 76 33 216 57 303 52 57
-4 69 -3 55 7 -46 31 -331 120 -445 139 -35 6 -38 5 -76 -46z"/>
<path d="M7770 5828 c-104 -28 -170 -51 -217 -76 -74 -39 -166 -124 -194 -179
-13 -27 -28 -51 -32 -54 -4 -3 -17 -43 -28 -90 -18 -75 -19 -92 -8 -154 21
-115 61 -189 148 -275 44 -44 99 -86 131 -102 186 -91 413 -92 596 -3 98 48
167 108 229 200 77 117 88 286 26 415 -50 105 -89 153 -161 203 -25 17 -47 34
-50 37 -10 13 -137 58 -207 74 -78 17 -178 19 -233 4z m242 -53 c130 -28 249
-105 329 -215 116 -158 82 -402 -75 -543 -165 -148 -425 -191 -618 -103 -31
14 -62 26 -67 26 -6 0 -11 4 -11 8 0 5 -17 18 -38 30 -35 19 -112 100 -121
126 -2 6 -9 18 -16 26 -51 65 -70 211 -40 315 19 65 80 161 126 198 19 16 42
35 51 42 44 36 171 89 233 98 70 10 179 6 247 -8z"/>
<path d="M7941 5644 c-26 -44 -26 -64 0 -98 24 -30 64 -34 110 -10 64 33 99 0
59 -56 -21 -30 -20 -50 4 -50 20 0 66 76 66 108 0 17 -10 38 -25 52 -20 19
-32 22 -65 17 -23 -3 -49 -12 -59 -21 -41 -37 -77 2 -46 50 9 13 13 29 10 34
-12 20 -33 9 -54 -26z"/>
<path d="M7826 5438 c-9 -12 -16 -38 -16 -56 0 -30 -2 -33 -22 -27 -13 4 -32
16 -44 26 -11 11 -25 19 -31 19 -6 0 -13 6 -16 13 -3 8 -10 6 -21 -8 -23 -30
-20 -37 34 -70 28 -16 98 -61 156 -98 85 -56 108 -66 119 -57 26 22 16 37 -51
80 -57 38 -97 83 -93 107 2 16 22 33 40 33 23 0 52 -13 119 -54 40 -25 58 -31
68 -24 23 20 12 33 -71 86 -95 60 -144 68 -171 30z"/>
<path d="M7596 5229 c-14 -17 -26 -38 -26 -47 0 -9 -3 -27 -6 -39 -8 -29 53
-93 87 -93 12 0 53 14 90 31 66 30 69 31 94 15 36 -23 33 -64 -7 -105 -30 -30
-30 -33 -14 -49 16 -16 19 -15 51 23 54 64 57 150 5 183 -33 20 -97 18 -129
-6 -38 -28 -100 -39 -112 -21 -16 26 -9 67 15 90 18 17 22 27 14 36 -17 20
-34 15 -62 -18z"/>
<path d="M8720 5775 c0 -8 5 -15 10 -15 6 0 10 -7 10 -15 0 -31 38 -35 370
-35 338 0 359 -2 387 -39 18 -23 16 -82 -7 -171 -11 -43 -29 -122 -40 -176
-11 -55 -45 -209 -75 -344 -56 -248 -66 -294 -111 -500 -13 -63 -36 -164 -49
-225 -22 -95 -35 -156 -75 -335 -35 -160 -55 -251 -75 -345 -13 -60 -32 -148
-44 -195 -11 -47 -25 -105 -30 -130 -6 -25 -24 -110 -41 -190 -49 -229 -81
-371 -96 -426 -24 -84 -68 -92 -242 -45 -115 32 -444 118 -502 131 -19 4 -73
19 -120 33 -47 14 -134 37 -195 52 -120 30 -164 51 -190 92 -23 35 -21 84 10
228 26 118 87 407 105 495 5 25 21 99 35 165 14 66 41 194 60 285 19 91 48
228 66 305 51 231 49 315 -6 315 -14 0 -25 -4 -25 -8 0 -8 -41 -207 -107 -517
-19 -93 -44 -210 -53 -260 -10 -49 -28 -135 -40 -190 -35 -161 -84 -392 -140
-668 -18 -91 -16 -127 12 -182 41 -79 65 -89 473 -195 343 -89 503 -131 575
-149 47 -12 108 -29 135 -37 108 -33 147 -30 303 25 79 28 158 62 176 76 36
27 86 96 86 117 0 7 12 69 26 138 52 256 83 409 109 540 14 74 33 164 41 200
19 88 191 946 209 1040 7 41 25 131 40 200 14 69 32 161 40 205 7 44 20 109
28 145 68 295 66 332 -22 420 -118 117 -199 174 -273 189 -29 7 -191 11 -398
11 -304 0 -350 -2 -350 -15z"/>
<path d="M8820 5608 c0 -5 4 -16 9 -26 41 -76 96 -253 120 -382 7 -36 16 -83
21 -105 5 -22 12 -56 15 -75 4 -19 13 -58 21 -87 14 -50 16 -52 39 -43 18 7
28 5 39 -5 8 -8 19 -15 25 -15 6 0 11 -4 11 -9 0 -5 14 -11 30 -15 18 -3 34
-14 38 -26 11 -29 172 642 172 716 0 48 -30 68 -108 71 -191 8 -432 8 -432 1z"/>
<path d="M8516 5413 c13 -53 9 -161 -6 -208 -15 -49 -66 -153 -84 -170 -7 -7
-23 -26 -37 -41 -55 -66 -180 -150 -264 -179 -49 -17 -128 -35 -155 -35 -47 0
-43 -16 8 -34 26 -10 56 -21 67 -26 11 -4 56 -22 100 -40 44 -17 87 -36 95
-40 8 -5 49 -25 90 -46 80 -39 233 -130 290 -173 118 -87 259 -222 260 -248 0
-6 4 -13 9 -15 5 -1 21 -27 36 -57 16 -33 30 -50 34 -42 8 12 -7 167 -35 361
-18 126 -67 355 -89 410 -8 19 -19 53 -25 75 -6 22 -15 49 -20 60 -5 11 -14
36 -22 55 -23 61 -120 254 -145 287 -12 17 -23 36 -23 42 0 6 -3 11 -7 11 -5
0 -21 20 -36 45 -36 56 -52 59 -41 8z"/>
<path d="M4128 4690 c-249 -23 -484 -60 -648 -102 -63 -16 -132 -34 -152 -39
-71 -17 -253 -90 -328 -132 -99 -55 -131 -78 -194 -140 -111 -111 -134 -204
-77 -322 31 -65 50 -87 129 -153 57 -47 233 -139 329 -171 34 -12 77 -27 95
-35 46 -20 170 -56 192 -56 10 0 35 -4 55 -10 20 -5 77 -18 126 -29 86 -19
128 -25 380 -53 149 -17 791 -17 950 0 190 20 403 54 505 81 203 54 287 79
360 108 94 38 223 103 228 115 2 5 9 8 15 8 7 1 44 27 82 58 91 75 141 166
138 253 -2 91 -55 174 -160 254 -32 24 -62 48 -68 53 -29 24 -204 103 -300
136 -187 63 -241 77 -440 115 -263 50 -404 62 -770 66 -192 2 -394 0 -447 -5z
m-290 -462 c1 -93 6 -168 10 -168 4 1 41 69 82 152 41 82 86 159 99 169 22 18
40 19 168 18 158 -2 157 -2 132 -66 -6 -15 -17 -50 -24 -78 -14 -53 -62 -218
-94 -325 -11 -36 -28 -91 -37 -122 l-18 -58 -103 0 -103 0 6 28 c4 15 20 74
36 132 55 193 57 212 15 138 -51 -91 -103 -185 -122 -221 -11 -22 -30 -50 -43
-64 -21 -23 -29 -25 -92 -21 -38 2 -71 6 -75 9 -3 3 -5 84 -6 179 0 101 -3
169 -9 164 -4 -5 -16 -38 -25 -74 -35 -138 -76 -264 -88 -272 -12 -7 -196 -3
-204 5 -2 3 0 15 5 28 6 13 24 74 41 134 79 282 134 461 144 473 8 10 46 12
156 10 l146 -3 3 -167z m1163 155 c10 -10 -22 -125 -42 -150 -8 -9 -39 -13
-103 -13 l-92 0 -13 -47 c-7 -27 -26 -86 -41 -133 -16 -47 -32 -101 -35 -122
-8 -44 -19 -48 -131 -48 -106 0 -110 5 -80 96 55 163 76 230 76 242 0 8 -26
12 -90 12 -67 0 -92 4 -96 14 -7 18 34 138 52 152 19 15 580 12 595 -3z m281
7 c8 0 38 -94 63 -200 21 -90 41 -119 50 -74 5 24 33 122 73 254 7 24 11 25
98 27 50 1 96 -2 103 -6 10 -7 5 -36 -24 -137 -20 -71 -42 -147 -49 -169 -8
-22 -33 -106 -56 -186 l-42 -147 -45 -6 c-74 -10 -148 -7 -166 7 -16 12 -87
237 -87 276 0 30 -19 35 -29 9 -9 -23 -34 -107 -67 -223 -9 -33 -18 -62 -20
-64 -8 -8 -181 -9 -194 -1 -10 6 -9 18 3 61 34 117 69 235 77 264 41 139 54
186 66 223 8 23 14 53 14 66 0 12 3 26 8 30 4 5 54 6 112 2 58 -3 108 -6 112
-6z"/>
<path d="M8007 4553 c9 -100 10 -228 3 -388 l-5 -110 60 -13 c33 -7 80 -16
105 -21 25 -5 54 -11 65 -14 11 -3 88 -19 170 -37 83 -17 191 -40 240 -51 50
-11 122 -26 160 -34 39 -7 80 -17 92 -20 35 -11 37 14 8 91 -30 80 -109 188
-201 276 -64 62 -199 164 -252 191 -15 7 -45 24 -67 37 -77 44 -290 148 -318
155 -15 4 -30 11 -33 16 -3 5 -12 9 -20 9 -14 0 -15 -12 -7 -87z"/>
<path d="M7897 3865 c-16 -16 -37 -98 -37 -144 0 -45 -6 -42 279 -107 52 -11
80 -13 95 -6 24 10 42 57 52 135 6 40 4 47 -17 60 -13 8 -69 24 -124 36 -55
12 -119 26 -143 31 -59 14 -88 12 -105 -5z"/>
<path d="M8492 3732 c-6 -5 -20 -43 -29 -85 -22 -103 -18 -108 136 -142 64
-14 141 -32 171 -40 93 -25 112 -9 132 104 15 91 6 103 -95 120 -39 7 -108 22
-152 32 -85 20 -142 24 -163 11z"/>
<path d="M7816 3554 c-9 -8 -18 -27 -22 -42 -3 -15 -9 -44 -14 -65 -13 -58 10
-79 117 -105 270 -65 275 -65 293 -4 19 65 24 131 11 146 -11 14 -98 37 -261
72 -83 18 -105 18 -124 -2z"/>
<path d="M8425 3418 c-11 -6 -22 -12 -24 -14 -2 -2 -9 -33 -17 -69 -23 -111
-22 -112 181 -162 94 -23 177 -42 186 -43 31 0 51 27 70 98 21 79 16 101 -27
121 -18 8 -335 82 -346 81 -2 0 -12 -6 -23 -12z"/>
<path d="M7741 3246 c-18 -21 -43 -128 -36 -154 3 -13 20 -29 38 -37 49 -22
271 -75 316 -75 38 0 40 1 54 48 34 108 30 141 -20 160 -46 18 -280 72 -311
72 -16 0 -35 -6 -41 -14z"/>
<path d="M8345 3096 c-20 -14 -44 -91 -45 -142 0 -33 34 -74 62 -74 8 0 79
-16 157 -35 157 -39 170 -40 194 -22 23 16 49 139 37 172 -10 26 -59 43 -256
89 -129 30 -125 30 -149 12z"/>
<path d="M4945 1728 c-3 -7 -14 -56 -26 -108 -11 -52 -27 -122 -35 -155 -53
-234 -53 -256 -7 -299 49 -46 196 -48 288 -5 170 80 226 326 88 384 -52 22
-118 19 -164 -7 -21 -12 -41 -20 -43 -17 -2 2 7 47 20 99 13 52 22 101 19 108
-3 8 -27 12 -70 12 -43 0 -67 -4 -70 -12z m214 -281 c65 -79 -49 -257 -137
-214 -25 12 -27 17 -24 66 3 59 18 95 54 127 38 35 87 45 107 21z"/>
<path d="M5755 1706 c-8 -20 -15 -43 -15 -53 0 -9 -6 -44 -14 -77 -8 -34 -22
-95 -31 -136 -9 -41 -25 -109 -35 -150 -10 -41 -20 -91 -22 -110 l-3 -35 70 0
69 0 12 55 c6 30 23 107 38 170 42 183 69 313 70 340 1 24 -2 25 -62 28 l-63
3 -14 -35z"/>
<path d="M5520 1717 c-62 -31 -43 -117 26 -117 26 0 43 8 65 29 35 36 36 45 4
76 -27 28 -57 31 -95 12z"/>
<path d="M3621 1691 c-14 -25 -38 -98 -46 -141 -4 -19 -18 -69 -31 -110 -53
-166 -83 -285 -75 -293 11 -11 107 -14 117 -4 4 3 13 32 21 64 8 32 18 72 23
88 5 17 21 75 35 130 40 158 41 159 51 30 4 -50 12 -137 18 -195 l12 -105 59
0 c49 0 61 3 70 20 6 11 28 51 50 88 72 124 104 181 132 236 39 75 39 47 -1
-164 -18 -99 -30 -185 -26 -190 5 -6 35 -8 72 -5 l63 5 8 50 c58 371 74 490
70 502 -4 11 -26 13 -96 11 l-90 -3 -93 -165 c-52 -91 -94 -173 -94 -182 0
-10 -6 -18 -13 -18 -10 0 -16 43 -26 170 -6 94 -14 177 -17 184 -4 10 -30 14
-94 15 -78 1 -90 -1 -99 -18z"/>
<path d="M6715 1700 c-7 -12 -82 -263 -95 -320 -4 -19 -20 -71 -34 -115 -14
-44 -26 -90 -26 -103 0 -22 3 -23 62 -20 l62 3 14 50 c30 106 91 340 92 350 0
5 3 5 8 0 5 -6 15 -84 22 -175 12 -151 15 -192 19 -212 0 -5 27 -8 60 -8 l58
0 32 58 c18 31 41 73 53 92 11 19 45 80 75 135 58 107 80 137 70 95 -4 -14
-13 -68 -22 -120 -8 -52 -19 -115 -25 -140 -20 -93 -23 -122 -12 -129 5 -3 37
-5 69 -3 l60 4 21 126 c40 235 64 412 58 427 -4 12 -24 15 -93 15 l-88 0 -25
-43 c-52 -87 -110 -194 -142 -259 -18 -37 -36 -68 -40 -68 -9 0 -16 53 -28
215 -7 88 -15 142 -23 147 -18 12 -175 10 -182 -2z"/>
<path d="M4490 1554 c-42 -14 -100 -47 -123 -70 -64 -64 -94 -178 -66 -250 26
-70 114 -110 223 -102 162 13 275 145 251 290 -8 46 -58 104 -108 126 -27 12
-146 15 -177 6z m99 -99 c36 -18 43 -37 35 -94 -13 -87 -73 -149 -129 -135
-80 20 -68 172 18 224 38 24 40 24 76 5z"/>
<path d="M6105 1551 c-71 -17 -138 -70 -173 -136 -52 -99 -30 -213 50 -260 40
-23 163 -31 238 -15 49 10 61 17 66 36 12 46 2 59 -41 57 -130 -7 -156 -5
-176 13 -42 38 -25 49 92 58 119 9 189 61 189 139 0 85 -120 138 -245 108z"/>
<path d="M7557 1540 c-70 -27 -114 -64 -142 -121 -48 -93 -43 -170 13 -231 79
-86 277 -72 372 26 67 67 90 183 52 256 -41 79 -185 113 -295 70z m141 -89
c15 -14 22 -30 22 -56 0 -44 -20 -115 -32 -115 -4 0 -8 -6 -8 -13 0 -22 -57
-49 -90 -42 -82 18 -72 173 13 225 40 25 66 25 95 1z"/>
<path d="M8008 1549 c-12 -8 -90 -365 -86 -394 2 -11 9 -20 16 -19 6 1 36 2
66 3 l54 1 7 38 c29 162 63 241 117 271 21 12 31 13 53 3 26 -12 27 -16 22
-60 -4 -26 -14 -78 -22 -117 -9 -38 -19 -85 -22 -102 l-5 -33 70 0 c59 0 72 3
76 18 2 9 12 46 20 82 46 200 47 237 7 282 -24 27 -36 32 -88 36 -47 3 -68 0
-101 -17 -23 -12 -42 -26 -42 -31 0 -6 -7 -10 -15 -10 -9 0 -15 9 -15 24 0 22
-5 24 -51 28 -28 1 -55 0 -61 -3z"/>
<path d="M8646 1536 c-69 -29 -98 -55 -134 -116 -36 -60 -39 -173 -6 -217 42
-56 78 -68 199 -67 61 0 123 6 139 13 26 10 28 14 21 49 -4 20 -8 39 -10 41
-2 2 -29 -1 -59 -6 -96 -17 -186 10 -173 52 2 5 41 13 88 16 134 11 189 39
210 107 11 39 11 48 -5 77 -39 71 -165 95 -270 51z"/>
<path d="M9332 1552 c-18 -3 -34 -27 -77 -116 -30 -62 -55 -119 -55 -125 0 -7
-6 -11 -12 -9 -7 3 -16 27 -19 54 -4 27 -12 82 -19 122 l-12 72 -74 0 c-41 0
-74 -3 -74 -7 0 -8 17 -76 42 -173 8 -30 23 -90 34 -133 l18 -78 -49 -45 c-28
-25 -60 -44 -73 -44 -29 0 -36 -18 -25 -72 11 -54 27 -58 100 -23 49 24 163
122 163 140 0 4 15 26 33 48 17 23 37 50 43 62 6 11 28 49 49 85 99 169 130
228 123 235 -7 7 -83 11 -116 7z"/>
<path d="M5456 1533 c-4 -10 -12 -38 -17 -63 -23 -114 -58 -278 -64 -303 l-7
-28 72 3 73 3 19 85 c10 47 27 123 38 170 11 47 21 99 22 115 l3 30 -66 3
c-56 2 -68 0 -73 -15z"/>
</g>
</svg>
