<?xml version="1.0" standalone="no"?>
<!DOCTYPE svg PUBLIC "-//W3C//DTD SVG 20010904//EN"
 "http://www.w3.org/TR/2001/REC-SVG-20010904/DTD/svg10.dtd">
<svg version="1.0" xmlns="http://www.w3.org/2000/svg"
  width="720.000000pt" height="385.000000pt" viewBox="0 0 696.000000 385.000000"
 preserveAspectRatio="xMidYMid meet">

<g transform="translate(0.000000,385.000000) scale(0.100000,-0.100000)"
fill="#000000" opacity="0.3" stroke="none">
<path d="M2265 3497 c-59 -33 -87 -88 -82 -160 4 -61 22 -95 71 -131 26 -20
43 -21 282 -24 140 -2 254 -6 254 -10 0 -4 -162 -169 -361 -367 -198 -198
-369 -377 -380 -397 -25 -49 -24 -95 4 -149 41 -77 117 -110 199 -89 38 10 88
57 413 381 204 203 373 369 377 369 4 0 8 -114 10 -252 3 -247 4 -254 26 -286
68 -94 216 -93 286 1 21 28 21 39 24 517 3 545 4 535 -64 586 l-37 29 -491 2
-491 3 -40 -23z"/>
<path d="M2285 1800 c-146 -21 -255 -158 -255 -320 0 -126 77 -255 180 -299
57 -25 161 -30 226 -12 84 23 169 111 194 201 14 51 12 170 -4 224 -45 149
-179 230 -341 206z m136 -126 c60 -30 93 -112 87 -212 -7 -126 -65 -192 -168
-192 -111 0 -170 73 -170 210 1 115 35 176 117 206 41 15 91 11 134 -12z"/>
<path d="M2897 1609 c-20 -11 -43 -28 -50 -39 -18 -29 -27 -24 -27 15 l0 35
-55 0 -55 0 0 -225 0 -225 60 0 60 0 0 126 c0 96 4 134 16 160 20 41 59 64
109 64 l35 0 0 55 c0 53 -1 55 -27 55 -16 -1 -45 -10 -66 -21z"/>
<path d="M3137 1618 c-46 -12 -102 -65 -109 -102 -3 -14 -3 -28 0 -31 10 -10
112 -5 112 5 0 6 11 22 25 35 47 48 145 26 145 -32 0 -33 -31 -51 -115 -63
-44 -7 -94 -18 -111 -25 -46 -19 -74 -60 -74 -109 0 -53 17 -85 60 -114 30
-21 44 -23 107 -20 55 2 79 9 102 26 37 27 41 27 41 2 0 -18 7 -20 58 -20 l57
0 -3 182 c-4 202 -10 226 -64 254 -39 20 -177 28 -231 12z m170 -285 c-7 -61
-40 -93 -99 -93 -47 0 -78 22 -78 56 0 40 35 61 130 77 54 9 53 10 47 -40z"/>
<path d="M3700 1614 c-19 -8 -45 -25 -57 -36 l-23 -21 0 31 0 32 -55 0 -55 0
0 -225 0 -225 59 0 60 0 3 159 c3 138 5 162 22 179 39 44 122 36 145 -14 6
-15 11 -85 11 -174 l0 -150 61 0 61 0 -4 184 c-3 168 -5 187 -24 213 -43 59
-131 79 -204 47z"/>
<path d="M4105 1616 c-40 -17 -90 -75 -105 -121 -17 -50 -9 -171 14 -218 35
-72 132 -111 215 -86 22 7 48 20 57 31 10 10 21 18 26 18 14 0 9 -79 -7 -110
-19 -38 -48 -52 -99 -52 -33 1 -46 7 -67 31 -23 28 -31 31 -82 31 -65 0 -70
-8 -34 -60 39 -59 79 -75 189 -75 91 0 99 2 140 30 71 50 73 58 76 338 l3 247
-56 0 c-52 0 -55 -1 -55 -25 0 -29 -12 -32 -31 -8 -34 40 -125 55 -184 29z
m164 -92 c50 -36 65 -127 32 -192 -34 -66 -100 -80 -153 -33 -28 24 -32 36
-36 90 -7 100 26 151 98 151 20 0 46 -7 59 -16z"/>
<path d="M4635 1615 c-51 -18 -120 -91 -134 -141 -34 -124 14 -250 113 -295
47 -21 136 -25 187 -8 39 13 94 62 115 102 l15 27 -52 0 c-40 0 -58 -5 -81
-25 -32 -27 -102 -34 -139 -15 -22 12 -49 61 -49 90 0 19 5 20 165 20 l165 0
0 23 c0 38 -26 116 -52 153 -48 71 -160 102 -253 69z m146 -104 c16 -16 29
-39 29 -50 0 -20 -5 -21 -100 -21 -107 0 -112 3 -86 49 32 57 111 68 157 22z"/>
<path d="M2030 650 l0 -310 65 0 65 0 2 218 3 217 75 -215 75 -215 53 -3 c28
-2 52 -1 52 1 0 13 143 414 151 422 5 5 9 -77 9 -208 l0 -217 60 0 60 0 0 310
0 310 -94 0 -94 0 -68 -210 c-37 -115 -70 -210 -74 -210 -3 0 -37 95 -75 210
l-69 210 -98 0 -98 0 0 -310z"/>
<path d="M2904 787 c-92 -36 -137 -108 -137 -221 0 -83 22 -135 77 -184 119
-104 327 -47 371 101 19 64 19 100 0 165 -30 100 -105 153 -217 151 -35 0 -77
-6 -94 -12z m159 -97 c46 -36 60 -128 31 -200 -25 -61 -87 -86 -147 -59 -73
33 -87 190 -22 255 32 31 101 33 138 4z"/>
<path d="M3475 788 c-11 -6 -32 -22 -47 -36 l-28 -26 0 32 0 32 -55 0 -55 0 0
-225 0 -225 60 0 60 0 0 156 0 156 29 29 c20 20 39 29 61 29 77 0 90 -34 90
-226 l0 -144 61 0 61 0 -4 183 c-3 203 -12 232 -74 262 -37 17 -130 19 -159 3z"/>
<path d="M3883 775 c-62 -31 -99 -82 -115 -157 -14 -69 0 -146 38 -201 65 -97
239 -115 330 -35 30 27 64 75 64 93 0 3 -23 5 -50 5 -43 0 -55 -4 -74 -26 -17
-20 -34 -28 -73 -31 -45 -5 -54 -2 -82 23 -17 16 -34 44 -37 62 l-6 32 166 0
166 0 0 28 c0 47 -29 129 -57 163 -60 71 -177 90 -270 44z m158 -75 c22 -13
52 -67 44 -80 -9 -14 -205 -13 -205 0 0 20 30 69 47 79 23 14 89 14 114 1z"/>
<path d="M4210 782 c0 -5 36 -105 80 -222 44 -117 80 -219 80 -226 0 -28 -39
-54 -80 -54 l-40 0 0 -50 0 -50 55 0 c62 0 111 17 138 47 13 15 217 540 217
560 0 2 -28 3 -61 1 l-62 -3 -46 -147 c-25 -81 -49 -148 -53 -148 -3 0 -28 66
-55 148 l-50 147 -61 3 c-34 2 -62 -1 -62 -6z"/>
</g>
</svg>
