<?xml version="1.0" standalone="no"?>
<!DOCTYPE svg PUBLIC "-//W3C//DTD SVG 20010904//EN"
 "http://www.w3.org/TR/2001/REC-SVG-20010904/DTD/svg10.dtd">
<svg version="1.0" xmlns="http://www.w3.org/2000/svg"
 width="900.000000pt" height="600.000000pt" viewBox="0 0 900.000000 600.000000"
 preserveAspectRatio="xMidYMid meet">
<metadata>
Created by potrace 1.16, written by Peter Selinger 2001-2019
</metadata>
<g transform="translate(0.000000,600.000000) scale(0.100000,-0.100000)"
fill="#000000" opacity="0.30" stroke="none">
<path d="M4670 3560 l0 -1000 265 0 265 0 0 255 c0 196 3 257 13 260 6 2 170
6 362 8 379 6 415 10 524 65 109 54 194 168 226 304 39 165 40 563 0 711 -44
168 -150 290 -304 348 -115 44 -200 49 -793 49 l-558 0 0 -1000z m1040 540
c80 -41 106 -125 98 -318 -8 -175 -31 -215 -134 -232 -33 -6 -152 -10 -266
-10 l-208 0 0 290 0 290 235 0 c215 0 239 -2 275 -20z"/>
<path d="M6442 3583 c-161 -538 -295 -988 -298 -1000 l-6 -23 276 0 276 0 6
28 c4 15 26 92 48 172 l41 145 360 0 360 0 51 -170 51 -170 271 -3 271 -2 -8
27 c-9 30 -284 936 -480 1583 l-117 385 -405 3 -404 2 -293 -977z m833 139
c67 -229 120 -420 118 -424 -2 -5 -114 -8 -249 -8 -229 0 -245 1 -240 18 3 9
55 195 116 412 133 474 120 433 128 425 3 -3 61 -194 127 -423z"/>
<path d="M1410 4539 c-335 -23 -487 -124 -536 -358 -17 -85 -21 -347 -5 -427
39 -203 137 -301 346 -347 86 -19 117 -22 433 -47 267 -21 309 -30 338 -74 41
-64 37 -205 -9 -254 -50 -54 -66 -57 -292 -57 -190 0 -214 2 -250 20 -52 26
-85 89 -85 162 l0 53 -251 0 -251 0 7 -112 c13 -216 44 -307 134 -391 63 -59
132 -91 242 -112 210 -40 712 -43 896 -6 161 33 281 108 335 207 53 99 63 159
62 399 0 206 -1 224 -23 278 -60 151 -172 227 -383 262 -51 8 -215 23 -364 34
-333 23 -353 31 -374 139 -17 91 12 186 64 210 88 40 362 43 448 5 56 -26 70
-49 77 -133 l6 -65 248 -3 247 -2 1 47 c11 342 -104 508 -387 558 -110 20
-483 27 -674 14z"/>
<path d="M3725 4536 c-225 -38 -459 -166 -598 -330 -56 -65 -152 -215 -161
-250 -6 -25 -8 -25 -123 -28 l-117 -3 -67 -145 -67 -145 144 -3 144 -3 0 -79
0 -80 -68 0 -69 0 -66 -143 c-37 -79 -67 -147 -67 -150 0 -4 78 -7 174 -7
l174 0 41 -76 c117 -216 307 -380 546 -469 168 -63 412 -76 585 -32 123 32
190 58 270 105 l65 38 3 188 2 188 -71 -66 c-257 -238 -655 -247 -922 -20 -53
45 -117 120 -117 135 0 5 163 9 363 9 l362 1 65 140 c36 78 67 145 68 150 2 5
-211 9 -492 9 l-496 0 0 80 0 80 533 0 534 0 66 143 c37 79 67 147 67 150 0 4
-248 7 -551 7 l-551 0 18 28 c62 95 173 191 280 243 262 125 570 76 780 -123
41 -39 76 -69 77 -67 2 2 29 60 60 128 l58 124 -28 30 c-40 42 -177 131 -258
167 -166 76 -408 107 -590 76z m417 -34 c148 -40 298 -117 406 -209 l34 -28
-51 -110 c-28 -60 -53 -110 -54 -112 -2 -1 -28 21 -59 50 -277 257 -700 258
-977 2 -48 -46 -149 -172 -139 -176 2 -1 248 -3 548 -4 300 -2 548 -3 552 -4
4 0 -21 -59 -54 -131 l-61 -130 -536 -2 -536 -3 -3 -65 c-2 -36 0 -80 3 -97
l6 -33 484 0 c267 0 485 -2 485 -4 0 -3 -27 -62 -60 -133 l-59 -128 -377 -3
-376 -2 27 -38 c104 -140 254 -240 426 -283 75 -19 249 -16 329 5 110 28 203
78 309 164 l41 34 0 -160 0 -160 -102 -51 c-337 -167 -717 -141 -1033 72 -122
82 -261 246 -319 375 l-19 42 -175 0 c-135 0 -173 3 -169 13 3 6 31 67 63 135
l57 122 74 0 73 0 0 100 0 100 -140 0 c-77 0 -140 3 -139 8 0 4 28 63 62 132
l62 125 109 0 109 0 38 74 c145 276 383 456 699 526 96 21 340 14 442 -13z"/>
<path d="M1345 2007 c-101 -49 -155 -139 -163 -267 -3 -68 -1 -80 25 -130 38
-72 93 -102 190 -103 107 0 176 45 218 146 l15 37 -54 0 c-45 0 -56 -3 -61
-20 -12 -39 -63 -70 -114 -70 -66 0 -102 38 -109 114 -10 122 64 226 163 226
41 0 85 -36 85 -70 0 -18 6 -20 55 -20 55 0 55 0 55 31 0 42 -33 93 -77 120
-56 35 -163 37 -228 6z"/>
<path d="M6037 2016 c-70 -26 -107 -76 -107 -145 0 -60 44 -105 126 -130 100
-32 124 -47 124 -81 0 -40 -40 -70 -94 -70 -56 0 -89 19 -101 58 -9 31 -11 32
-62 32 l-52 0 6 -32 c15 -83 55 -120 145 -137 118 -23 221 20 253 103 34 90
-6 165 -103 192 -89 24 -112 35 -129 61 -14 21 -14 25 1 48 36 56 166 35 166
-27 0 -15 8 -18 56 -18 l56 0 -7 33 c-8 38 -31 73 -67 100 -35 26 -157 33
-211 13z"/>
<path d="M1765 1998 c-17 -77 -95 -457 -95 -466 0 -8 20 -12 53 -12 l52 0 18
93 c10 50 22 96 27 101 12 13 135 2 154 -13 12 -10 16 -33 16 -97 l0 -84 53 0
52 0 -2 96 c-1 82 -4 100 -22 117 l-20 20 31 16 c72 37 98 136 52 198 -31 42
-73 52 -226 52 -135 1 -138 1 -143 -21z m267 -85 c38 -35 12 -95 -50 -113 -55
-15 -155 -13 -149 3 2 7 10 38 17 70 l11 57 76 0 c57 0 81 -4 95 -17z"/>
<path d="M2265 1998 c-3 -13 -27 -125 -53 -250 l-48 -228 192 0 c211 0 193 -6
208 63 l6 27 -140 0 c-130 0 -141 1 -136 18 3 9 8 31 11 47 15 70 5 65 141 65
91 0 126 3 128 13 3 6 7 24 10 40 l6 27 -126 0 -126 0 6 38 c14 77 3 72 151
72 74 0 136 3 138 8 2 4 7 24 11 45 l7 37 -190 0 c-189 0 -191 0 -196 -22z"/>
<path d="M2686 1794 c-26 -126 -50 -239 -53 -251 -5 -23 -5 -23 124 -23 155 0
216 15 274 67 52 47 78 99 91 180 18 114 -18 195 -101 231 -24 10 -78 17 -161
20 l-126 4 -48 -228z m274 118 c94 -47 63 -243 -46 -288 -40 -17 -154 -19
-154 -3 0 15 61 293 67 302 8 14 98 7 133 -11z"/>
<path d="M3245 2008 c-2 -7 -25 -112 -50 -233 -25 -121 -48 -228 -51 -237 -5
-16 2 -18 50 -18 43 0 56 4 60 18 3 9 25 114 50 232 25 118 48 223 50 233 4
15 -4 17 -50 17 -35 0 -56 -5 -59 -12z"/>
<path d="M3400 2006 c0 -7 -3 -28 -6 -45 l-6 -31 76 0 c42 0 76 -4 76 -8 0 -5
-18 -94 -40 -198 -22 -104 -40 -192 -40 -196 0 -5 25 -8 55 -8 30 0 55 3 55 8
0 16 80 384 85 393 4 5 40 9 81 9 56 0 74 3 74 14 0 7 3 28 6 45 l7 31 -212 0
c-172 0 -211 -3 -211 -14z"/>
<path d="M4017 2013 c-2 -5 -7 -25 -11 -45 l-7 -38 76 0 c56 0 75 -3 75 -13 0
-8 -18 -99 -40 -203 -22 -104 -40 -190 -40 -191 0 -2 24 -3 54 -3 l54 0 16 73
c8 39 28 131 43 202 l28 130 76 3 77 3 6 31 c12 61 24 58 -198 58 -113 0 -207
-3 -209 -7z"/>
<path d="M4435 1788 c-26 -128 -50 -241 -53 -250 -4 -16 3 -18 50 -18 l55 0
17 83 c28 131 18 120 98 115 97 -5 110 -21 101 -124 l-6 -74 57 0 58 0 -4 101
c-3 91 -5 102 -26 117 l-23 18 36 13 c91 33 103 189 18 231 -19 10 -76 15
-179 18 l-150 4 -49 -234z m313 130 c21 -21 14 -72 -13 -98 -21 -19 -39 -24
-105 -28 -90 -5 -87 -10 -68 80 l12 58 81 0 c50 0 86 -5 93 -12z"/>
<path d="M4998 1808 c-69 -117 -136 -230 -148 -250 l-22 -38 59 0 58 0 29 55
29 56 96 -3 c76 -2 96 -6 98 -18 1 -8 4 -32 8 -52 l6 -38 54 0 54 0 -6 33 c-3
17 -21 129 -42 247 l-36 215 -55 3 -55 3 -127 -213z"/>
<path d="M5460 2016 c0 -3 -22 -111 -50 -241 -27 -130 -50 -241 -50 -246 0 -5
22 -9 49 -9 l49 0 10 48 c6 26 20 99 33 162 12 63 25 118 28 122 4 4 36 -68
72 -160 l66 -167 56 -3 c52 -3 57 -1 62 20 23 102 95 454 95 465 0 11 -12 13
-47 11 l-48 -3 -35 -172 c-19 -95 -38 -173 -42 -173 -5 0 -8 5 -8 11 0 6 -28
85 -62 175 l-63 164 -57 0 c-32 0 -58 -2 -58 -4z"/>
<path d="M6413 1993 c-3 -16 -27 -127 -53 -248 l-46 -220 49 -3 c32 -2 53 1
58 9 4 7 16 55 25 106 l18 93 108 0 108 0 6 28 c3 15 7 33 10 40 2 9 -22 12
-100 12 -56 0 -105 2 -108 5 -3 3 0 29 7 58 l11 52 126 3 126 3 6 31 c12 61
21 58 -169 58 l-175 0 -7 -27z"/>
<path d="M6830 2015 c0 -3 -22 -112 -50 -242 -27 -130 -50 -241 -50 -245 0 -4
88 -8 195 -8 l195 0 0 23 c0 12 3 32 6 45 l6 22 -136 0 c-75 0 -136 4 -136 8
0 5 5 34 11 65 l12 57 128 0 c116 0 129 2 129 18 0 9 3 27 6 40 6 22 6 22
-121 22 -116 0 -126 1 -121 18 3 9 8 34 12 55 l6 37 138 0 138 0 6 31 c12 62
23 59 -184 59 -104 0 -190 -2 -190 -5z"/>
<path d="M7286 2003 c-9 -30 -96 -457 -96 -471 0 -8 17 -12 53 -12 l52 0 18
93 c10 50 22 96 27 101 12 13 135 2 154 -13 12 -10 16 -33 16 -97 l0 -84 53 0
52 0 -3 99 c-3 82 -7 102 -22 116 -19 17 -19 18 12 34 72 37 98 136 52 198
-31 42 -73 52 -226 52 -122 1 -137 -1 -142 -16z m266 -90 c38 -35 12 -95 -50
-113 -20 -5 -63 -10 -95 -10 -51 0 -58 2 -53 18 2 9 7 33 11 52 14 73 10 70
92 70 57 0 81 -4 95 -17z"/>
</g>
</svg>
