<?xml version="1.0" standalone="no"?>
<!DOCTYPE svg PUBLIC "-//W3C//DTD SVG 20010904//EN"
 "http://www.w3.org/TR/2001/REC-SVG-20010904/DTD/svg10.dtd">
<svg version="1.0" xmlns="http://www.w3.org/2000/svg"
 width="217.000000pt" height="70.000000pt" viewBox="0 0 217.000000 70.000000"
 preserveAspectRatio="xMidYMid meet">

<g transform="translate(0.000000,70.000000) scale(0.100000,-0.100000)"
fill="#000000" opacity="0.30" stroke="none">
<path d="M1321 684 c-87 -23 -158 -77 -180 -137 -17 -45 -13 -118 8 -154 20
-31 77 -76 141 -108 81 -41 101 -87 54 -124 -35 -28 -133 -28 -209 -2 -30 11
-57 16 -59 13 -2 -4 -7 -37 -11 -74 l-7 -67 43 -13 c24 -7 91 -13 149 -13 88
1 113 4 157 24 110 49 168 163 132 258 -16 43 -57 81 -135 124 -86 48 -108 70
-99 99 14 45 103 62 191 35 57 -17 59 -15 68 63 8 63 5 66 -67 82 -63 13 -110
12 -176 -6z"/>
<path d="M611 658 c-114 -314 -157 -428 -162 -428 -4 0 -10 20 -13 44 -15 95
-100 224 -191 286 -24 17 -45 30 -48 30 -2 0 31 -129 73 -287 l76 -288 90 -3
91 -3 26 63 c30 72 200 489 228 561 l19 47 -90 0 c-85 0 -91 -1 -99 -22z"/>
<path d="M875 658 c-2 -13 -25 -149 -50 -303 -24 -154 -47 -295 -50 -312 l-6
-33 84 0 85 0 6 33 c3 17 26 158 51 312 24 154 47 290 50 303 5 21 3 22 -80
22 -80 0 -85 -1 -90 -22z"/>
<path d="M1824 659 c-10 -11 -78 -162 -150 -335 l-132 -315 90 3 90 3 17 45
17 45 116 3 116 3 8 -48 9 -48 83 -3 c50 -2 81 1 78 6 -5 8 -63 281 -123 575
l-18 87 -91 0 c-80 0 -93 -3 -110 -21z m109 -291 l24 -116 -69 -4 c-39 -2 -72
0 -74 3 -3 5 48 154 82 239 8 20 10 15 37 -122z"/>
</g>
</svg>
