<?xml version="1.0" standalone="no"?>
<!DOCTYPE svg PUBLIC "-//W3C//DTD SVG 20010904//EN"
 "http://www.w3.org/TR/2001/REC-SVG-20010904/DTD/svg10.dtd">
<svg version="1.0" xmlns="http://www.w3.org/2000/svg"
 width="1151.000000pt" height="600.000000pt" viewBox="0 0 1151.000000 600.000000"
 preserveAspectRatio="xMidYMid meet">
<metadata>
Created by potrace 1.16, written by Peter Selinger 2001-2019
</metadata>
<g transform="translate(0.000000,600.000000) scale(0.100000,-0.100000)"
fill="#000000" opacity="0.30" stroke="none">
<path d="M4130 5784 c-458 -64 -930 -253 -1360 -545 -354 -239 -607 -529 -845
-967 l-50 -92 -398 0 c-322 0 -404 -3 -432 -14 -30 -13 -43 -31 -100 -145 -36
-72 -65 -140 -65 -151 0 -29 27 -77 49 -90 13 -6 154 -10 386 -10 344 0 366
-1 361 -17 -3 -10 -321 -687 -705 -1506 -385 -818 -701 -1495 -702 -1505 -4
-44 3 -65 36 -101 20 -21 47 -42 61 -45 31 -8 617 79 660 98 27 12 54 60 215
368 101 194 458 882 794 1528 l611 1175 518 5 518 5 22 26 c43 50 146 246 146
278 0 20 -10 42 -29 63 l-29 33 -466 3 c-256 1 -466 4 -466 7 0 16 351 724
387 779 127 197 302 299 563 327 131 15 212 5 429 -48 126 -32 162 -37 266
-37 111 -1 124 1 176 27 116 56 213 197 213 307 1 108 -71 183 -219 230 -60
19 -97 23 -255 26 -126 2 -219 -2 -290 -12z"/>
<path d="M7844 4909 c-548 -49 -1097 -281 -1433 -604 -149 -143 -235 -273
-279 -415 -44 -144 -37 -243 23 -367 59 -120 168 -204 341 -262 144 -48 262
-64 484 -64 337 0 617 52 955 177 119 44 538 249 566 277 26 26 24 71 -3 96
-39 36 -107 73 -131 73 -13 0 -83 -27 -156 -60 -375 -170 -666 -243 -976 -244
-231 0 -361 33 -436 110 -33 34 -34 38 -33 112 1 42 8 95 15 117 13 37 17 40
54 43 904 58 1517 209 1784 438 61 53 117 143 132 212 27 130 -35 228 -181
289 -168 70 -445 97 -726 72z m213 -262 c42 -22 50 -56 28 -113 -59 -156 -367
-296 -810 -368 -135 -22 -286 -38 -325 -34 l-35 4 105 105 c168 168 336 282
530 360 137 55 213 69 355 66 91 -2 128 -7 152 -20z"/>
<path d="M10324 4909 c-638 -57 -1276 -364 -1576 -759 -121 -159 -184 -353
-160 -493 33 -189 166 -325 390 -397 149 -48 262 -63 482 -63 456 0 836 99
1322 345 181 91 218 118 218 157 0 42 -102 121 -155 121 -14 0 -76 -23 -138
-51 -322 -148 -575 -222 -847 -250 -278 -28 -539 28 -601 128 -19 30 -21 44
-16 106 4 40 12 89 17 110 11 37 11 37 63 37 86 0 390 29 591 55 757 101 1209
291 1302 546 9 24 16 71 17 105 2 135 -99 223 -313 273 -158 37 -388 49 -596
30z m213 -262 c67 -36 51 -112 -41 -203 -110 -108 -321 -195 -613 -253 -240
-48 -483 -74 -483 -53 0 16 205 208 287 269 162 121 351 212 508 247 96 21
297 17 342 -7z"/>
<path d="M5056 4864 c-192 -38 -487 -174 -743 -343 -210 -139 -222 -160 -126
-235 31 -25 67 -47 80 -51 18 -4 54 12 146 65 205 117 390 180 451 152 42 -19
50 -2 -318 -667 -146 -263 -266 -490 -266 -502 0 -88 166 -143 385 -128 157
11 162 14 246 168 139 255 328 513 531 722 183 189 348 301 493 334 31 7 125
10 245 9 182 -3 198 -2 242 19 127 59 216 209 194 328 -10 52 -58 101 -119
122 -69 23 -219 23 -306 -1 -197 -54 -477 -221 -733 -439 -38 -32 -68 -55 -68
-51 0 3 20 43 44 87 87 161 102 247 56 321 -53 86 -249 127 -434 90z"/>
<path d="M8525 2776 c-156 -72 -89 -303 80 -272 120 23 156 184 57 255 -39 27
-99 35 -137 17z"/>
<path d="M6940 2759 c-8 -14 -10 -172 -8 -532 5 -574 3 -560 80 -717 80 -163
251 -299 438 -347 85 -21 235 -21 320 0 195 50 359 183 443 358 57 118 71 179
71 299 -1 260 -146 492 -379 605 -107 52 -189 68 -325 62 -130 -5 -214 -28
-307 -84 -31 -18 -57 -33 -59 -33 -2 0 -4 87 -4 193 0 137 -3 196 -12 205 -8
8 -51 12 -130 12 -108 0 -118 -2 -128 -21z m765 -554 c123 -32 212 -106 269
-225 28 -59 31 -74 31 -160 0 -91 -2 -100 -37 -172 -45 -91 -103 -147 -196
-191 -61 -29 -76 -32 -162 -32 -86 0 -101 3 -162 32 -88 41 -160 113 -201 201
-29 61 -32 76 -32 162 0 86 3 101 31 160 40 82 87 136 155 177 99 59 199 75
304 48z"/>
<path d="M8930 2759 c-8 -14 -10 -173 -7 -537 4 -580 3 -567 80 -717 30 -58
63 -102 122 -160 115 -115 232 -173 395 -195 120 -16 120 -16 120 129 0 83 -4
122 -12 128 -7 6 -40 13 -73 17 -81 8 -190 63 -244 122 -24 25 -57 75 -74 112
l-32 67 -5 515 c-3 283 -9 521 -13 528 -6 8 -43 12 -127 12 -110 0 -120 -2
-130 -21z"/>
<path d="M4560 2486 c-137 -29 -265 -100 -356 -197 l-51 -55 -74 71 c-129 123
-284 185 -463 185 -115 0 -198 -20 -306 -72 -113 -55 -237 -177 -293 -288 -72
-144 -77 -186 -77 -600 0 -271 3 -369 12 -378 17 -17 229 -17 246 0 9 9 12 97
12 333 0 341 7 419 45 502 69 153 259 254 420 224 176 -33 307 -164 335 -336
5 -33 10 -206 10 -385 0 -240 3 -329 12 -338 17 -17 232 -16 246 1 7 8 12 140
14 382 3 360 4 372 26 428 109 271 451 344 655 140 27 -26 62 -77 80 -113 l32
-65 5 -375 c3 -206 9 -381 13 -387 12 -20 240 -18 256 1 9 11 11 112 9 398
l-4 383 -27 80 c-93 278 -329 458 -617 470 -59 3 -120 -1 -160 -9z"/>
<path d="M5980 2474 c-30 -8 -93 -33 -140 -56 -111 -54 -237 -177 -293 -285
-232 -447 87 -982 588 -986 202 -1 361 67 503 218 199 209 237 525 95 785 -50
90 -177 214 -270 263 -102 53 -204 77 -327 76 -56 0 -126 -7 -156 -15z m242
-265 c121 -25 234 -115 286 -227 24 -50 27 -69 27 -162 0 -93 -3 -112 -27
-162 -51 -109 -151 -193 -264 -223 -79 -20 -139 -19 -217 5 -104 32 -191 107
-241 206 -145 290 118 629 436 563z"/>
<path d="M10200 2474 c-30 -8 -93 -33 -140 -56 -111 -54 -237 -177 -293 -285
-201 -387 10 -859 433 -968 78 -21 222 -23 305 -6 107 22 237 93 323 176 78
74 143 168 164 237 18 62 6 68 -138 68 -117 0 -125 -1 -142 -22 -9 -13 -44
-50 -77 -84 -71 -71 -142 -103 -247 -111 -192 -15 -389 137 -414 321 l-7 46
525 0 c394 0 527 3 536 12 29 29 -2 197 -60 317 -57 120 -178 241 -298 299
-47 23 -112 49 -145 57 -75 19 -251 19 -325 -1z m326 -293 c59 -28 144 -94
144 -112 0 -5 -135 -9 -305 -9 -168 0 -305 4 -305 8 0 12 71 76 111 100 99 59
245 65 355 13z"/>
<path d="M8446 2298 c-14 -20 -16 -90 -16 -568 0 -478 2 -548 16 -568 14 -21
23 -22 128 -22 74 0 116 4 124 12 17 17 17 1139 0 1156 -8 8 -50 12 -124 12
-105 0 -114 -1 -128 -22z"/>
</g>
</svg>
