<?xml version="1.0" standalone="no"?>
<!DOCTYPE svg PUBLIC "-//W3C//DTD SVG 20010904//EN"
 "http://www.w3.org/TR/2001/REC-SVG-20010904/DTD/svg10.dtd">
<svg version="1.0" xmlns="http://www.w3.org/2000/svg"
 width="900.000000pt" height="343.000000pt" viewBox="0 0 900.000000 343.000000"
 preserveAspectRatio="xMidYMid meet">

<g transform="translate(0.000000,343.000000) scale(0.100000,-0.100000)"
fill="#000000" opacity="0.3" stroke="none">
<path d="M4550 2594 c-89 -76 -80 -204 19 -271 40 -27 117 -31 161 -8 77 40
112 151 72 225 -31 58 -74 80 -153 80 -58 0 -72 -4 -99 -26z"/>
<path d="M3360 2069 c0 -596 1 -606 68 -733 55 -105 139 -186 247 -237 81 -39
94 -43 188 -47 179 -7 309 40 422 153 114 114 175 274 175 459 0 178 -47 310
-150 419 -109 116 -223 163 -380 155 -104 -5 -164 -33 -239 -109 l-51 -52 0
193 c0 175 -2 198 -21 236 -30 64 -74 87 -176 92 l-83 5 0 -534z m665 -107
c81 -41 120 -112 137 -252 31 -249 -86 -426 -269 -407 -158 16 -244 139 -246
351 -1 151 53 259 155 311 45 23 62 26 118 22 38 -2 81 -12 105 -25z"/>
<path d="M8000 1902 l0 -698 23 -44 c29 -58 72 -79 175 -87 l81 -6 3 374 3
374 28 58 c37 74 86 109 163 115 100 8 196 -53 225 -145 7 -24 14 -151 18
-350 6 -294 7 -313 27 -339 45 -60 100 -83 202 -84 l54 0 -4 403 c-4 375 -5
406 -25 464 -56 169 -166 264 -337 294 -131 22 -236 -9 -312 -93 -18 -21 -36
-38 -39 -38 -3 0 -5 85 -5 189 0 179 -1 190 -22 221 -13 18 -34 41 -48 51 -27
20 -110 39 -171 39 l-39 0 0 -698z"/>
<path d="M2365 2446 c-324 -64 -563 -312 -615 -638 -11 -70 -10 -221 2 -233 8
-9 184 -18 210 -12 24 6 25 11 30 99 6 101 24 155 79 234 l30 45 -27 32 c-132
156 -18 354 241 420 174 45 380 20 508 -60 28 -17 37 -20 37 -9 0 8 2 21 5 29
7 17 -79 58 -170 82 -86 22 -245 27 -330 11z"/>
<path d="M2915 2318 c-10 -32 -8 -46 19 -91 88 -149 1 -302 -214 -378 -44 -15
-83 -39 -119 -72 -116 -104 -269 -188 -427 -234 -74 -21 -117 -26 -251 -30
l-161 -5 18 -54 c68 -196 203 -351 385 -439 132 -64 198 -79 340 -79 225 1
402 77 555 241 80 85 133 173 166 277 66 208 52 387 -44 586 -40 82 -59 108
-143 193 -96 96 -116 109 -124 85z"/>
<path d="M361 2230 c-71 -15 -167 -65 -221 -116 -60 -56 -104 -141 -125 -239
-18 -87 -21 -607 -4 -670 22 -81 110 -135 217 -135 l51 0 3 378 3 377 27 55
c39 78 82 105 167 105 100 0 161 -47 192 -147 6 -18 12 -164 14 -329 3 -276 4
-299 24 -337 35 -68 101 -102 202 -102 l59 0 0 363 c0 212 5 381 11 407 34
150 222 202 322 90 61 -66 67 -107 67 -420 0 -227 3 -285 16 -323 27 -79 98
-117 217 -117 l58 0 -3 403 c-4 376 -5 406 -25 464 -69 206 -239 314 -476 301
-105 -5 -180 -39 -253 -114 l-51 -52 -48 48 c-26 27 -77 63 -113 82 -62 31
-73 33 -176 35 -61 1 -131 -2 -155 -7z"/>
<path d="M6437 2230 c-141 -17 -240 -75 -289 -169 -23 -43 -28 -66 -28 -123
l0 -69 38 30 c87 70 218 106 359 99 147 -7 208 -56 215 -173 l3 -50 -150 -6
c-191 -8 -301 -36 -392 -101 -155 -112 -164 -349 -19 -486 103 -97 199 -126
406 -120 121 3 141 7 193 31 115 53 184 129 219 239 15 51 18 93 18 276 0 246
-11 319 -61 412 -86 162 -274 239 -512 210z m303 -731 c0 -129 -33 -186 -123
-210 -88 -23 -212 13 -242 71 -19 38 -19 109 1 138 36 51 100 70 252 71 l112
1 0 -71z"/>
<path d="M7404 2225 c-138 -30 -252 -113 -307 -224 -28 -58 -32 -75 -32 -151
0 -69 4 -94 24 -133 43 -89 141 -140 327 -172 192 -32 234 -56 234 -131 0 -38
-5 -51 -30 -74 -53 -50 -162 -62 -297 -34 -79 16 -195 63 -207 83 -20 31 -28
6 -24 -78 3 -82 5 -92 34 -128 89 -111 276 -157 480 -118 145 28 242 95 292
203 24 50 27 70 27 157 0 116 -16 156 -86 219 -66 60 -153 92 -349 127 -74 14
-135 41 -144 64 -21 57 16 123 82 147 23 8 80 13 147 12 91 -1 122 -5 183 -27
40 -14 88 -37 107 -52 l35 -26 0 79 c0 102 -24 152 -101 205 -90 62 -252 83
-395 52z"/>
<path d="M5595 2220 c-135 -15 -261 -75 -354 -170 -149 -152 -207 -403 -137
-604 50 -147 152 -262 287 -328 94 -46 163 -61 269 -61 152 0 261 51 308 143
18 36 22 61 22 134 l0 90 -27 -27 c-86 -81 -290 -109 -415 -55 -56 24 -121 91
-151 156 -32 68 -32 239 0 297 71 131 215 194 379 166 86 -15 139 -38 188 -82
l39 -33 -5 94 c-6 135 -43 198 -145 249 -34 17 -162 44 -183 39 -3 0 -36 -4
-75 -8z"/>
<path d="M4510 1793 c0 -226 5 -426 10 -462 27 -166 127 -254 306 -268 58 -5
79 -2 117 15 57 25 74 58 78 152 l3 65 -75 5 c-80 6 -111 18 -131 53 -10 16
-14 113 -18 362 -5 340 -5 340 -30 385 -35 63 -91 90 -187 90 l-73 0 0 -397z"/>
<path d="M2235 1971 c-86 -50 -151 -138 -170 -231 -6 -30 -2 -26 25 25 43 82
102 158 147 191 73 54 73 58 -2 15z"/>
</g>
</svg>
