<?xml version="1.0" standalone="no"?>
<!DOCTYPE svg PUBLIC "-//W3C//DTD SVG 20010904//EN"
 "http://www.w3.org/TR/2001/REC-SVG-20010904/DTD/svg10.dtd">
<svg version="1.0" xmlns="http://www.w3.org/2000/svg"
 width="286.000000pt" height="228.000000pt" viewBox="0 0 286.000000 228.000000"
 preserveAspectRatio="xMidYMid meet">

<g transform="translate(0.000000,228.000000) scale(0.100000,-0.100000)"
fill="#000000" opacity="0.3" stroke="none">
<path d="M1015 2274 c-11 -3 -55 -12 -99 -20 -464 -89 -830 -471 -901 -941
-46 -303 28 -604 206 -843 192 -258 447 -408 779 -460 51 -8 201 -10 475 -7
424 4 457 7 610 59 280 96 524 308 657 573 69 136 118 346 118 505 0 150 -48
368 -101 460 l-20 35 7 -35 c4 -19 8 -45 8 -57 1 -12 4 -25 9 -29 12 -13 8
-22 -29 -58 -30 -29 -40 -52 -70 -158 -37 -130 -55 -158 -103 -158 -45 0 -67
25 -86 95 -10 36 -22 68 -26 71 -4 2 -28 -1 -54 -8 -36 -10 -47 -17 -51 -38
-16 -78 -65 -120 -141 -120 -92 0 -143 59 -143 168 0 115 36 163 129 170 93 7
151 -38 151 -117 0 -40 11 -45 55 -24 36 17 37 19 30 58 -13 80 -13 80 25 80
30 0 35 -4 44 -32 5 -18 12 -33 16 -33 12 0 121 84 149 114 14 14 34 26 45 27
13 1 6 6 -19 14 -72 24 -402 18 -613 -10 l-42 -6 6 -39 6 -39 -138 58 c-77 32
-200 79 -274 106 -74 27 -139 51 -143 55 -5 4 56 55 135 112 220 161 305 218
312 211 3 -3 6 -16 6 -28 0 -13 6 -27 13 -32 6 -6 68 -13 137 -16 200 -10 418
-56 509 -108 18 -11 35 -18 37 -17 2 2 -23 33 -54 69 -167 193 -370 313 -632
375 -64 15 -135 18 -495 20 -231 1 -429 0 -440 -2z m-183 -701 c45 -51 50 -80
43 -214 -6 -116 -5 -129 10 -135 19 -8 102 68 142 130 14 22 53 68 87 103 53
54 67 63 97 63 55 0 59 -10 59 -146 0 -128 4 -154 25 -154 16 0 112 101 153
161 45 67 87 99 128 99 55 0 67 -28 62 -154 -3 -103 -4 -106 -35 -137 -21 -21
-37 -30 -48 -25 -14 5 -16 15 -10 71 8 67 1 115 -15 115 -5 0 -42 -42 -83 -92
-100 -126 -148 -168 -191 -168 -25 0 -40 7 -55 26 -19 24 -21 40 -21 150 0 68
-4 124 -9 124 -11 0 -116 -113 -138 -149 -9 -14 -39 -50 -67 -79 -82 -86 -129
-102 -165 -56 -19 24 -21 40 -21 167 0 131 -2 142 -22 164 -39 41 -61 31 -167
-74 -54 -54 -107 -112 -119 -129 l-21 -31 27 5 c15 3 25 2 22 -1 -3 -3 -17 -7
-32 -9 -16 -2 -42 -22 -70 -53 -121 -139 -150 -177 -142 -185 11 -11 224 -31
237 -23 5 3 6 16 3 29 -4 13 -4 24 -1 24 3 0 47 -29 98 -64 124 -86 215 -138
227 -131 6 3 10 47 10 96 0 87 1 92 29 120 26 26 36 29 91 29 34 0 71 -5 82
-11 14 -8 23 -8 31 0 6 6 39 11 73 11 112 0 137 -43 132 -230 l-3 -115 -35 0
-35 0 -5 130 c-3 72 -9 136 -13 143 -5 6 -24 12 -43 12 -47 0 -54 -22 -54
-171 l0 -119 -35 0 -35 0 0 126 c0 69 -5 134 -10 145 -15 26 -75 26 -90 0 -5
-11 -10 -76 -10 -145 l0 -126 -35 0 c-33 0 -40 7 -36 38 3 21 -18 14 -77 -26
-107 -72 -173 -105 -185 -93 -8 8 -14 8 -24 0 -10 -9 -13 -8 -13 4 0 10 -17
19 -52 27 -162 34 -317 120 -352 194 -10 20 -19 74 -22 128 -6 85 -5 95 15
120 21 27 129 84 179 95 18 3 56 39 112 105 213 251 279 307 361 308 31 0 51
-6 61 -17z m1092 -108 c50 -24 66 -61 66 -152 0 -89 -12 -118 -59 -150 -67
-45 -173 -21 -209 47 -8 17 -12 55 -10 112 3 76 6 90 28 113 14 15 34 31 45
35 33 14 105 11 139 -5z m-1327 -231 c-3 -3 -12 -4 -19 -1 -8 3 -5 6 6 6 11 1
17 -2 13 -5z m-64 -11 c-7 -2 -19 -2 -25 0 -7 3 -2 5 12 5 14 0 19 -2 13 -5z
m1035 -203 c18 -11 40 -36 48 -55 20 -49 18 -161 -4 -205 -47 -95 -209 -93
-253 4 -23 50 -25 152 -5 201 30 71 141 99 214 55z m379 -4 c28 -24 28 -26 33
-166 3 -78 2 -146 -1 -152 -3 -5 -19 -8 -35 -6 l-29 3 -5 130 c-3 72 -9 136
-13 143 -5 6 -28 12 -52 12 -24 0 -47 -6 -52 -12 -4 -7 -10 -71 -13 -143 l-5
-130 -35 0 -35 0 -3 115 c-5 192 18 230 144 230 63 0 77 -3 101 -24z m338 4
c38 -24 65 -82 65 -140 l0 -39 -107 -3 c-102 -3 -108 -4 -105 -23 8 -45 30
-55 119 -55 82 0 83 0 83 -25 0 -32 -31 -45 -111 -45 -125 0 -169 45 -169 173
0 86 13 122 56 156 36 29 124 29 169 1z m215 -99 c0 -105 2 -121 21 -145 18
-23 28 -27 63 -24 l41 3 3 143 3 143 37 -3 37 -3 3 -182 c3 -207 -4 -240 -59
-269 -25 -13 -50 -15 -112 -12 -80 5 -100 15 -94 48 2 12 16 14 74 12 78 -4
113 8 113 38 0 17 -7 20 -50 20 -121 0 -152 41 -158 207 -2 62 -2 120 2 128 3
9 18 15 41 15 l35 0 0 -119z"/>
<path d="M220 1083 c-71 -49 -95 -82 -70 -98 13 -8 121 110 108 119 -1 2 -19
-8 -38 -21z"/>
<path d="M1812 1404 c-19 -13 -22 -24 -22 -88 0 -84 12 -107 57 -108 53 -2 63
15 63 103 0 69 -2 80 -22 93 -12 9 -29 16 -38 16 -9 0 -26 -7 -38 -16z"/>
<path d="M1446 959 c-23 -18 -26 -27 -26 -88 0 -83 16 -111 65 -111 49 0 65
28 65 111 0 61 -3 70 -26 88 -15 12 -32 21 -39 21 -7 0 -24 -9 -39 -21z"/>
<path d="M2175 968 c-26 -15 -35 -28 -35 -56 0 -22 3 -23 62 -20 73 3 86 21
44 63 -28 28 -41 30 -71 13z"/>
<path d="M2160 1400 c-16 -16 -20 -33 -20 -87 1 -79 15 -104 59 -105 36 -1 60
16 62 46 5 105 3 125 -15 145 -24 26 -60 27 -86 1z"/>
<path d="M2553 1355 l-31 -13 16 -61 c9 -34 19 -61 22 -61 6 0 40 119 40 139
0 14 -8 13 -47 -4z"/>
</g>
</svg>
