<?xml version="1.0" standalone="no"?>
<!DOCTYPE svg PUBLIC "-//W3C//DTD SVG 20010904//EN"
 "http://www.w3.org/TR/2001/REC-SVG-20010904/DTD/svg10.dtd">
<svg version="1.0" xmlns="http://www.w3.org/2000/svg"
 width="230.000000pt" height="198.000000pt" viewBox="0 0 230.000000 198.000000"
 preserveAspectRatio="xMidYMid meet">

<g transform="translate(0.000000,198.000000) scale(0.100000,-0.100000)"
fill="#000000" opacity="0.30" stroke="none">
<path d="M476 1959 c-217 -53 -385 -215 -453 -434 -16 -55 -18 -102 -18 -535
0 -433 2 -480 18 -535 32 -105 86 -195 162 -270 85 -84 178 -137 296 -165 79
-19 116 -20 669 -20 553 0 590 1 669 20 220 53 390 215 458 435 16 55 18 102
18 535 0 433 -2 480 -18 535 -32 105 -86 195 -162 270 -85 84 -178 137 -296
165 -80 19 -115 20 -674 19 -548 0 -596 -2 -669 -20z m314 -781 l9 -23 7 23
c6 20 12 22 75 22 37 0 70 -4 73 -8 3 -5 -13 -64 -35 -133 -30 -93 -41 -143
-42 -199 l-2 -75 -77 -3 -78 -3 0 74 c0 59 -8 100 -40 200 -22 68 -40 130 -40
136 0 7 25 11 70 11 64 0 72 -2 80 -22z m515 -128 c0 -128 -3 -150 -21 -185
-59 -113 -213 -116 -278 -5 -18 30 -22 56 -24 173 -2 76 -1 144 2 153 5 12 31
14 163 12 l158 -3 0 -145z m281 124 c52 -39 68 -70 72 -143 3 -54 0 -76 -16
-108 -26 -51 -43 -64 -100 -78 -40 -10 -47 -16 -50 -39 -3 -25 -5 -26 -78 -26
l-74 0 0 203 c0 112 3 207 8 211 4 5 53 6 109 4 83 -3 107 -7 129 -24z"/>
</g>
</svg>
