<?xml version="1.0" standalone="no"?>
<!DOCTYPE svg PUBLIC "-//W3C//DTD SVG 20010904//EN"
 "http://www.w3.org/TR/2001/REC-SVG-20010904/DTD/svg10.dtd">
<svg version="1.0" xmlns="http://www.w3.org/2000/svg"
 width="1172.000000pt" height="1300.000000pt" viewBox="0 0 1172.000000 1300.000000"
 preserveAspectRatio="xMidYMid meet">
<metadata>
Created by potrace 1.16, written by Peter Selinger 2001-2019
</metadata>
<g transform="translate(0.000000,1300.000000) scale(0.100000,-0.100000)"
fill="#ffffff" stroke="none">
<path d="M5132 12088 c-16 -29 -56 -105 -90 -168 -33 -63 -75 -144 -94 -180
-19 -36 -109 -202 -200 -370 -216 -399 -247 -458 -338 -630 -43 -80 -110 -206
-150 -280 -40 -74 -93 -173 -118 -220 -24 -47 -63 -119 -86 -160 -24 -41 -53
-95 -65 -120 -22 -42 -131 -246 -582 -1086 -104 -193 -189 -354 -189 -358 0
-3 49 -6 109 -6 l109 0 80 148 c43 81 101 188 127 237 87 161 80 160 82 16 0
-69 6 -148 11 -176 10 -48 9 -53 -34 -137 l-45 -88 55 0 c40 0 57 4 64 16 8
15 10 15 15 0 5 -13 25 -16 122 -16 112 0 115 1 147 29 l32 29 -27 83 c-83
253 -55 465 86 655 175 236 565 344 970 268 l89 -17 46 45 c26 24 82 75 125
112 49 43 75 72 69 78 -15 15 -211 65 -330 85 -149 25 -403 23 -529 -4 -51
-11 -93 -15 -93 -10 0 8 110 216 380 717 37 69 89 166 115 215 27 50 80 151
120 225 40 74 94 176 120 225 26 50 64 119 84 155 20 36 43 77 50 92 16 31 -9
41 216 -80 144 -77 302 -162 460 -247 168 -89 480 -257 541 -291 l61 -33 36
30 c20 17 37 34 37 37 0 4 -28 23 -62 41 -35 19 -85 46 -113 61 -27 15 -113
61 -190 102 -77 41 -186 100 -243 131 -56 32 -104 57 -107 57 -2 0 -65 34
-140 75 -76 41 -139 75 -142 75 -2 0 -35 17 -71 38 -147 85 -305 163 -312 155
-7 -7 -56 -97 -195 -358 -26 -49 -76 -142 -110 -205 -35 -63 -117 -216 -183
-340 -134 -252 -230 -432 -360 -672 -48 -90 -98 -184 -112 -210 -21 -41 -33
-51 -91 -77 -37 -16 -102 -54 -145 -83 -44 -30 -85 -58 -93 -62 -7 -5 2 20 21
55 60 108 172 319 233 434 32 61 61 115 65 120 4 6 27 48 51 95 23 47 52 101
64 120 12 19 51 91 87 160 121 231 160 305 173 325 7 11 54 98 105 194 50 96
104 197 119 225 15 28 81 150 146 271 65 121 121 224 126 229 6 7 261 -125
739 -384 386 -209 858 -460 866 -460 5 1 42 32 83 69 l74 68 -99 53 c-54 29
-133 71 -174 93 -41 22 -97 52 -125 67 -27 15 -147 80 -265 143 -118 63 -271
145 -340 182 -69 37 -161 86 -205 110 -44 23 -141 75 -215 115 -140 76 -414
220 -417 220 -1 0 -15 -24 -31 -52z"/>
<path d="M8335 12088 c-51 -43 -215 -190 -624 -553 -123 -110 -288 -256 -366
-325 -290 -257 -676 -600 -937 -835 -54 -48 -95 -92 -91 -98 3 -6 1 -7 -5 -3
-6 3 -91 -65 -194 -156 -286 -254 -635 -564 -718 -638 -41 -37 -136 -121 -210
-187 -74 -66 -209 -187 -300 -268 -91 -81 -235 -209 -320 -284 -84 -75 -177
-157 -205 -183 l-50 -47 147 -1 146 0 94 83 c52 45 174 154 273 242 98 88 218
194 266 236 47 41 126 111 175 155 198 179 302 272 364 325 36 31 92 81 125
112 33 30 61 54 63 52 2 -2 -4 -17 -12 -33 -17 -32 -66 -178 -66 -195 0 -5 8
-3 18 4 9 8 8 3 -5 -11 -12 -14 -25 -44 -29 -67 -5 -36 -16 -50 -68 -95 -33
-29 -88 -78 -122 -108 -33 -30 -134 -120 -224 -200 -90 -80 -214 -190 -274
-245 -61 -55 -146 -131 -188 -168 -43 -38 -78 -72 -78 -76 0 -5 29 -9 63 -10
l64 -2 114 102 c63 56 148 131 189 168 77 69 255 227 408 363 48 42 89 74 91
72 2 -2 5 -29 8 -61 13 -197 58 -397 122 -548 l39 -90 166 -3 c91 -1 166 0
166 3 0 3 -23 50 -50 105 -238 474 -179 971 140 1185 113 76 215 107 372 113
146 5 223 -6 358 -50 228 -74 416 -189 602 -366 256 -244 443 -580 488 -872
20 -135 -1 -120 165 -120 l145 0 0 38 c0 47 -33 230 -56 308 -21 73 -108 285
-143 349 -273 498 -754 878 -1244 984 -53 12 -111 21 -129 21 l-33 0 60 58
c34 31 133 121 220 198 88 78 245 218 350 310 104 93 277 247 385 342 107 96
231 206 274 245 92 83 126 111 130 106 1 -2 27 -31 57 -65 30 -33 68 -76 84
-95 46 -51 283 -319 399 -448 55 -63 109 -123 119 -135 10 -12 63 -70 117
-131 389 -436 546 -614 687 -774 l102 -116 -22 -21 c-37 -35 -555 -496 -611
-544 -100 -85 -671 -597 -685 -613 -12 -16 -7 -17 57 -17 63 0 74 3 99 26 15
14 77 70 137 123 61 53 139 123 176 156 36 33 137 124 225 202 88 77 232 205
320 283 88 78 224 199 302 268 l142 126 -36 45 c-68 86 -127 142 -143 136 -12
-5 -12 -4 -3 6 10 10 2 24 -40 69 -28 30 -131 146 -227 255 -96 110 -200 227
-230 260 -31 33 -92 101 -135 150 -44 50 -102 115 -130 145 -27 31 -75 85
-105 120 -30 35 -78 89 -106 120 -37 40 -458 516 -535 604 -9 11 -58 -28 -213
-168 -61 -56 -147 -132 -191 -171 -44 -38 -125 -110 -180 -160 -56 -49 -177
-157 -270 -240 -93 -82 -197 -175 -230 -205 -34 -30 -92 -82 -131 -116 -38
-33 -135 -120 -216 -192 -134 -120 -151 -132 -185 -132 -33 0 -74 -6 -186 -26
-16 -3 -49 -12 -75 -19 -25 -8 -47 -13 -49 -11 -2 2 86 81 194 177 109 96 243
215 298 264 55 50 161 144 235 210 74 65 142 126 151 134 27 26 223 201 389
347 360 319 427 378 470 419 62 59 153 135 160 135 3 0 82 -87 176 -192 93
-106 194 -220 224 -253 30 -34 69 -77 85 -96 17 -19 71 -79 120 -135 50 -55
171 -192 270 -304 99 -113 203 -230 231 -260 72 -78 528 -592 536 -604 4 -6
13 -4 25 5 16 13 17 12 5 -3 -16 -20 -20 -15 165 -221 l122 -135 -377 -335
c-207 -184 -386 -344 -398 -354 -39 -34 -267 -238 -378 -338 -61 -54 -112
-103 -114 -107 -2 -4 60 -8 138 -8 l142 0 100 88 c162 143 414 366 718 638 63
56 131 116 150 134 19 17 95 83 167 147 130 114 133 117 115 137 -9 11 -60 68
-112 126 -102 114 -378 425 -421 475 -49 56 -224 251 -349 389 -69 76 -150
168 -181 204 -31 37 -62 66 -68 64 -6 -1 -10 4 -8 10 1 7 -4 12 -11 10 -8 -1
-11 2 -7 8 5 9 -115 151 -279 330 -28 30 -80 89 -116 130 -36 41 -90 102 -120
135 -62 68 -326 367 -380 429 -19 22 -62 69 -95 104 l-61 63 -49 -43z"/>
<path d="M5753 10967 c-40 -15 -84 -48 -136 -104 l-40 -42 -44 26 c-24 14 -45
24 -47 22 -10 -13 -66 -124 -66 -131 0 -5 19 -18 43 -29 l44 -21 -19 -67 c-24
-81 -20 -187 8 -246 27 -59 91 -117 168 -155 58 -29 82 -35 155 -38 l86 -4
130 116 c72 64 129 121 127 127 -1 6 1 8 6 5 13 -8 322 266 322 285 0 14 -114
31 -166 25 -65 -7 -106 -25 -222 -93 -82 -48 -92 -56 -80 -70 12 -14 11 -15
-8 -3 -17 11 -28 8 -82 -20 -73 -38 -103 -36 -175 10 -38 24 -47 35 -47 58 0
16 9 37 20 47 20 18 22 18 78 -5 31 -12 68 -29 81 -38 22 -13 26 -13 37 3 10
14 11 22 2 32 -8 10 -8 12 3 8 10 -4 32 28 74 107 33 62 61 118 63 125 2 6
-27 26 -63 44 -54 26 -81 33 -143 36 -45 1 -91 -2 -109 -10z"/>
<path d="M8196 10777 l-57 -49 35 -43 35 -42 -25 -24 c-14 -13 -39 -53 -57
-89 -28 -57 -32 -75 -32 -145 1 -97 25 -152 106 -234 113 -115 220 -138 472
-101 85 12 162 18 180 14 37 -8 154 -115 172 -159 13 -30 6 -61 -19 -77 -30
-20 -56 -5 -139 81 l-85 89 -44 -37 c-81 -67 -198 -174 -198 -182 0 -4 23 -32
51 -63 65 -71 156 -131 218 -145 66 -14 161 2 235 39 l58 30 43 -48 43 -47 51
50 c28 27 51 54 51 59 0 6 -17 27 -37 48 l-37 38 32 44 c56 77 75 133 76 216
0 64 -4 84 -31 140 -58 118 -163 223 -263 262 -72 27 -138 26 -326 -6 -186
-32 -212 -32 -255 -3 -37 25 -79 81 -79 107 0 21 36 60 57 60 9 0 43 -27 76
-60 34 -33 64 -59 68 -58 15 5 239 210 239 219 0 17 -101 106 -152 135 -45 24
-64 29 -123 29 -61 -1 -80 -6 -142 -37 l-72 -37 -34 38 -34 38 -57 -50z"/>
<path d="M2292 9724 c-370 -81 -651 -295 -735 -559 -30 -97 -30 -249 1 -358
l22 -77 0 -2496 c0 -2488 0 -2496 21 -2620 l21 -124 -21 -36 c-32 -53 -30
-226 4 -377 101 -450 286 -701 589 -803 75 -25 78 -26 99 -8 12 10 16 12 10 4
-7 -8 -13 -18 -13 -22 0 -4 248 -8 551 -8 524 0 551 1 538 18 -13 16 -13 16 7
-1 19 -16 122 -17 1844 -17 l1823 0 -19 23 -19 22 26 -22 25 -23 1090 0 c921
0 1100 3 1159 15 214 45 394 218 450 430 13 51 15 167 15 840 0 429 0 786 0
793 0 10 -34 12 -152 10 l-153 -3 -5 -118 c-5 -111 -6 -119 -30 -137 -14 -11
-41 -20 -60 -20 -19 0 -46 9 -60 20 -24 18 -25 26 -30 137 l-5 118 -730 2
c-803 3 -815 3 -963 65 -85 35 -209 121 -270 187 -164 177 -249 425 -222 645
36 290 202 527 455 650 177 86 95 80 1199 84 l979 3 21 26 c26 33 41 67 25 57
-8 -5 -9 -2 -3 9 5 9 7 188 4 400 -3 212 -3 384 0 382 3 -2 4 216 2 483 -3
542 -5 563 -69 684 -79 148 -215 260 -389 319 -32 12 -636 15 -3469 19 l-3430
5 -83 37 c-255 112 -448 292 -504 472 -26 82 -21 211 11 277 67 140 233 252
458 310 71 18 114 19 604 19 l528 0 16 31 c13 24 14 34 4 45 -9 12 -9 13 2 9
14 -5 28 23 84 158 l15 37 -145 0 c-114 0 -145 -3 -139 -12 6 -10 4 -10 -7 0
-10 9 -112 12 -438 12 -390 0 -426 -1 -445 -17 -20 -17 -20 -17 -7 0 17 21 5
21 -87 1z m-424 -1477 c98 -97 102 -102 102 -144 0 -56 -65 -102 -116 -82 -36
13 -179 154 -194 190 -24 57 23 119 90 119 30 0 46 -11 118 -83z m788 -250
c35 -41 32 -90 -7 -129 l-30 -31 -120 5 c-138 6 -167 19 -183 82 -8 30 -6 41
11 64 32 43 50 47 182 42 119 -5 123 -6 147 -33z m724 18 c55 -29 67 -94 26
-142 l-24 -28 -137 0 -137 0 -24 28 c-40 47 -29 113 24 141 38 21 232 22 272
1z m754 -6 c38 -30 49 -64 35 -106 -17 -52 -49 -63 -183 -63 -109 0 -116 1
-145 26 -26 21 -31 33 -31 69 0 36 5 48 31 69 29 25 36 26 148 26 106 0 121
-2 145 -21z m760 -8 c20 -19 26 -34 26 -65 0 -46 -5 -55 -40 -79 -38 -26 -243
-24 -287 2 -37 23 -51 68 -33 112 21 51 50 59 187 57 113 -3 123 -5 147 -27z
m726 14 c59 -30 68 -98 20 -147 l-30 -30 -131 4 c-129 3 -131 3 -155 31 -40
47 -29 113 24 141 38 21 232 22 272 1z m745 3 c27 -12 55 -54 55 -83 0 -29
-28 -71 -55 -83 -15 -7 -73 -12 -140 -12 -108 0 -115 1 -144 26 -54 45 -38
133 29 157 30 11 229 7 255 -5z m768 -16 c46 -43 35 -126 -19 -151 -33 -15
-236 -14 -269 1 -29 13 -55 55 -55 89 0 11 16 37 35 56 l35 35 124 -4 c114 -3
127 -5 149 -26z m753 -5 c35 -41 32 -90 -6 -129 l-30 -30 -129 4 c-109 2 -132
6 -149 22 -45 40 -35 122 17 151 20 12 56 14 149 13 122 -3 124 -3 148 -31z
m731 14 c36 -23 47 -50 39 -95 -12 -62 -33 -71 -177 -74 l-129 -4 -30 30 c-34
35 -40 83 -14 120 24 35 48 41 169 41 92 1 115 -2 142 -18z m655 -39 c73 -35
90 -49 106 -79 20 -37 14 -73 -17 -104 -37 -36 -78 -38 -129 -5 -20 14 -59 30
-87 37 -68 16 -91 32 -105 73 -9 28 -8 40 4 65 9 16 24 35 33 41 31 19 128 4
195 -28z m167 -589 c30 -28 30 -29 31 -138 2 -156 3 -153 -25 -180 -30 -31
-92 -34 -126 -6 -22 18 -24 28 -29 147 -4 107 -2 131 12 155 34 56 90 65 137
22z m-10 -738 c16 -8 31 -22 35 -30 3 -9 6 -73 6 -143 0 -123 -1 -127 -27
-154 -20 -21 -36 -28 -63 -28 -27 0 -43 7 -63 28 -26 28 -27 31 -27 159 l0
131 31 26 c35 29 67 33 108 11z m-6 -2986 c42 -19 48 -43 48 -174 -1 -68 -4
-130 -7 -139 -8 -21 -56 -46 -88 -46 -13 0 -38 12 -55 26 l-31 26 0 131 c0
128 1 131 27 159 29 30 65 36 106 17z m-7587 -623 c24 -24 59 -57 79 -72 47
-35 67 -74 59 -114 -12 -58 -85 -88 -141 -57 -46 26 -157 134 -170 165 -29 69
23 138 96 127 24 -3 48 -18 77 -49z m7470 -96 c29 0 64 -47 64 -87 0 -34 -7
-45 -66 -100 -75 -71 -158 -110 -202 -95 -35 11 -65 54 -65 91 0 37 24 66 76
93 22 11 58 36 80 57 46 42 65 52 85 45 8 -2 20 -4 28 -4z m-6651 -164 c34
-34 40 -67 19 -107 -10 -19 -18 -37 -19 -41 0 -3 -4 -10 -9 -15 -5 -4 -7 -4
-4 2 4 7 -40 9 -127 7 -148 -4 -169 2 -190 50 -16 38 -5 85 26 111 18 14 42
17 151 17 123 0 130 -1 153 -24z m744 7 c46 -38 42 -126 -8 -152 -11 -6 -75
-11 -146 -11 -127 0 -127 0 -156 29 -20 20 -29 39 -29 61 0 22 9 41 29 61 l29
29 130 0 c109 0 133 -3 151 -17z m734 6 c57 -26 61 -115 8 -156 -21 -16 -251
-17 -284 -2 -53 24 -62 96 -18 140 29 29 30 29 150 29 67 0 131 -5 144 -11z
m768 -18 c20 -20 29 -39 29 -61 0 -22 -9 -41 -29 -61 l-29 -29 -132 0 c-126 0
-132 1 -155 25 -36 35 -35 97 1 130 26 24 33 25 156 25 l130 0 29 -29z m741 9
c14 -11 28 -32 31 -47 7 -35 -15 -88 -41 -102 -12 -6 -75 -11 -145 -11 -139 0
-169 12 -182 69 -7 33 14 84 42 100 10 6 75 11 144 11 111 0 129 -2 151 -20z
m752 -6 c33 -34 35 -89 5 -128 -20 -26 -22 -26 -155 -26 l-136 0 -29 29 c-20
20 -29 39 -29 61 0 22 9 41 29 61 l29 29 130 0 c126 0 130 -1 156 -26z m747
-3 c31 -31 37 -67 17 -104 -22 -42 -38 -46 -174 -47 -125 0 -132 1 -158 25
-19 18 -26 34 -26 63 0 76 31 91 188 92 123 0 124 0 153 -29z m741 9 c47 -37
41 -122 -11 -150 -26 -13 -257 -13 -283 1 -11 6 -26 26 -34 45 -12 29 -12 39
0 68 8 19 22 39 33 45 10 6 73 11 144 11 111 0 129 -2 151 -20z m753 -5 c19
-18 25 -35 25 -65 0 -30 -6 -47 -25 -65 -23 -24 -29 -25 -155 -25 l-132 0 -29
29 c-20 20 -29 39 -29 61 0 22 9 41 29 61 l29 29 132 0 c126 0 132 -1 155 -25z"/>
<path d="M9912 5881 l-104 -111 -987 0 c-944 0 -991 -1 -1063 -19 -241 -62
-414 -245 -464 -490 -63 -314 124 -619 446 -727 52 -17 113 -19 1005 -21 l950
-3 163 158 162 158 -2 583 -3 583 -103 -111z m-1847 -506 c140 -68 195 -233
124 -374 -50 -99 -124 -145 -239 -145 -114 -1 -195 47 -248 149 -36 67 -37
168 -4 237 27 54 87 112 146 139 53 25 163 22 221 -6z"/>
</g>
</svg>
