<?xml version="1.0" standalone="no"?>
<!DOCTYPE svg PUBLIC "-//W3C//DTD SVG 20010904//EN"
 "http://www.w3.org/TR/2001/REC-SVG-20010904/DTD/svg10.dtd">
<svg version="1.0" xmlns="http://www.w3.org/2000/svg"
 width="512.000000pt" height="512.000000pt" viewBox="0 0 512.000000 512.000000"
 preserveAspectRatio="xMidYMid meet">

<g transform="translate(0.000000,512.000000) scale(0.100000,-0.100000)"
fill="#ffffff" stroke="none">
<path d="M2425 4714 c-168 -26 -282 -62 -418 -132 -317 -162 -546 -465 -623
-822 -23 -106 -26 -352 -5 -455 48 -245 161 -457 335 -631 170 -170 364 -275
608 -331 103 -23 375 -23 476 0 493 113 847 474 943 962 8 40 14 132 14 215 0
158 -12 235 -56 373 -129 399 -465 704 -879 798 -83 19 -327 33 -395 23z m300
-169 c329 -53 613 -261 760 -555 42 -86 72 -168 97 -270 17 -71 17 -316 0
-395 -58 -271 -218 -514 -435 -663 -101 -70 -257 -135 -392 -164 -79 -17 -324
-17 -395 0 -237 57 -429 168 -574 330 -210 235 -301 549 -251 857 36 222 135
414 296 573 90 88 159 137 264 190 201 100 413 133 630 97z"/>
<path d="M2397 4384 c-229 -41 -444 -186 -575 -387 -54 -82 -107 -207 -118
-276 -7 -41 -6 -41 25 -41 31 0 31 0 31 55 0 46 4 60 25 80 23 24 31 25 135
25 104 0 112 -1 135 -25 16 -15 25 -36 25 -55 0 -51 -38 -80 -105 -80 l-55 0
0 -55 c0 -46 -4 -60 -25 -80 -22 -23 -32 -25 -120 -25 l-95 0 0 -27 c0 -16 3
-52 6 -80 l7 -53 169 0 c166 0 169 0 193 -25 33 -32 33 -78 0 -110 -23 -24
-28 -25 -169 -25 l-145 0 19 -46 c57 -132 188 -284 318 -368 92 -60 160 -90
264 -117 446 -114 893 129 1054 574 l13 37 -59 0 -60 0 0 -55 c0 -67 -29 -105
-80 -105 -19 0 -40 9 -55 25 -24 23 -25 31 -25 135 0 104 1 112 25 135 23 24
29 25 155 25 l130 0 0 80 0 80 -135 0 c-131 0 -137 1 -160 25 -33 32 -33 78 0
110 23 24 30 25 144 25 l121 0 -25 68 c-85 225 -283 425 -509 513 -144 56
-321 72 -479 43z m58 -169 c21 -20 25 -34 25 -80 l0 -55 80 0 80 0 0 55 c0 67
29 105 80 105 19 0 40 -9 55 -25 21 -20 25 -34 25 -82 l0 -58 65 -34 c67 -34
105 -74 146 -151 20 -37 24 -59 23 -130 0 -90 -15 -133 -71 -207 l-25 -32 25
-33 c56 -75 71 -118 71 -208 1 -74 -3 -92 -27 -138 -36 -69 -92 -124 -156
-152 l-51 -24 0 -58 c0 -49 -4 -63 -25 -83 -15 -16 -36 -25 -55 -25 -51 0 -80
38 -80 105 l0 55 -80 0 -80 0 0 -55 c0 -67 -29 -105 -80 -105 -51 0 -80 38
-80 105 l0 55 -95 0 c-88 0 -98 2 -120 25 -33 32 -33 78 0 110 20 21 34 25 80
25 l55 0 0 400 0 400 -55 0 c-46 0 -60 4 -80 25 -33 32 -33 78 0 110 22 23 32
25 120 25 l95 0 0 55 c0 67 29 105 80 105 19 0 40 -9 55 -25z"/>
<path d="M2400 3759 l0 -160 189 3 c173 3 192 5 217 24 52 39 69 71 69 133 0
48 -5 64 -29 95 -45 60 -71 66 -271 66 l-175 0 0 -161z"/>
<path d="M2400 3279 l0 -160 189 3 c173 3 192 5 217 24 52 39 69 71 69 133 0
48 -5 64 -29 95 -45 60 -71 66 -271 66 l-175 0 0 -161z"/>
<path d="M985 2615 c-24 -23 -25 -31 -25 -135 0 -104 1 -112 25 -135 15 -16
36 -25 55 -25 19 0 40 9 55 25 24 23 25 31 25 135 0 104 -1 112 -25 135 -15
16 -36 25 -55 25 -19 0 -40 -9 -55 -25z"/>
<path d="M3945 2615 c-24 -23 -25 -31 -25 -135 0 -104 1 -112 25 -135 15 -16
36 -25 55 -25 19 0 40 9 55 25 24 23 25 31 25 135 0 104 -1 112 -25 135 -15
16 -36 25 -55 25 -19 0 -40 -9 -55 -25z"/>
<path d="M3662 2497 c-14 -14 -22 -36 -22 -57 0 -29 12 -45 78 -112 89 -89
122 -99 167 -53 46 45 36 78 -53 167 -68 68 -83 78 -113 78 -24 0 -43 -7 -57
-23z"/>
<path d="M4168 2442 c-89 -89 -99 -122 -53 -167 45 -46 78 -36 167 53 68 68
78 83 78 113 0 46 -34 79 -80 79 -29 0 -45 -12 -112 -78z"/>
<path d="M663 2488 c-27 -13 -47 -60 -39 -91 3 -13 39 -55 80 -95 64 -62 79
-72 110 -72 48 0 76 28 76 77 0 32 -9 46 -78 115 -81 81 -101 89 -149 66z"/>
<path d="M1268 2422 c-68 -68 -78 -83 -78 -113 0 -46 34 -79 79 -79 28 0 46
12 107 72 41 40 77 82 80 95 13 51 -32 103 -88 103 -14 0 -51 -29 -100 -78z"/>
<path d="M3545 2215 c-16 -15 -25 -36 -25 -55 0 -19 9 -40 25 -55 23 -24 31
-25 135 -25 104 0 112 1 135 25 16 15 25 36 25 55 0 19 -9 40 -25 55 -23 24
-31 25 -135 25 -104 0 -112 -1 -135 -25z"/>
<path d="M4185 2215 c-16 -15 -25 -36 -25 -55 0 -19 9 -40 25 -55 23 -24 31
-25 135 -25 104 0 112 1 135 25 16 15 25 36 25 55 0 19 -9 40 -25 55 -23 24
-31 25 -135 25 -104 0 -112 -1 -135 -25z"/>
<path d="M505 2135 c-16 -15 -25 -36 -25 -55 0 -19 9 -40 25 -55 23 -24 31
-25 135 -25 104 0 112 1 135 25 16 15 25 36 25 55 0 19 -9 40 -25 55 -23 24
-31 25 -135 25 -104 0 -112 -1 -135 -25z"/>
<path d="M1305 2135 c-16 -15 -25 -36 -25 -55 0 -19 9 -40 25 -55 23 -24 31
-25 135 -25 104 0 112 1 135 25 16 15 25 36 25 55 0 19 -9 40 -25 55 -23 24
-31 25 -135 25 -104 0 -112 -1 -135 -25z"/>
<path d="M3718 1992 c-68 -68 -78 -83 -78 -113 0 -46 34 -79 80 -79 29 0 45
12 112 78 89 89 99 122 53 167 -45 46 -78 36 -167 -53z"/>
<path d="M4115 2045 c-46 -45 -36 -78 53 -167 68 -68 83 -78 113 -78 46 0 79
34 79 80 0 29 -12 45 -78 112 -89 89 -122 99 -167 53z"/>
<path d="M3945 1975 c-24 -23 -25 -31 -25 -135 0 -104 1 -112 25 -135 15 -16
36 -25 55 -25 19 0 40 9 55 25 24 23 25 31 25 135 0 104 -1 112 -25 135 -15
16 -36 25 -55 25 -19 0 -40 -9 -55 -25z"/>
<path d="M704 1858 c-41 -40 -77 -82 -80 -95 -14 -55 44 -113 99 -99 13 3 55
39 95 80 62 64 72 79 72 110 0 23 -7 43 -20 56 -13 13 -33 20 -56 20 -31 0
-46 -10 -110 -72z"/>
<path d="M1212 1907 c-42 -44 -31 -80 50 -163 40 -41 82 -77 95 -80 55 -14
113 44 99 99 -3 13 -39 55 -80 95 -62 61 -79 72 -108 72 -23 0 -42 -8 -56 -23z"/>
<path d="M985 1815 c-24 -23 -25 -31 -25 -135 0 -104 1 -112 25 -135 15 -16
36 -25 55 -25 19 0 40 9 55 25 24 23 25 31 25 135 0 104 -1 112 -25 135 -15
16 -36 25 -55 25 -19 0 -40 -9 -55 -25z"/>
<path d="M2410 1420 c-47 -10 -123 -31 -170 -45 -73 -23 -111 -28 -260 -34
-191 -8 -221 -16 -259 -70 -12 -16 -24 -43 -27 -60 l-6 -30 257 -3 257 -3 24
-28 c29 -34 31 -66 3 -101 l-20 -26 -312 0 -311 0 -290 96 c-262 87 -295 96
-344 91 -50 -5 -132 -43 -148 -68 -3 -6 0 -17 7 -23 8 -7 291 -136 629 -286
605 -268 616 -273 690 -276 55 -3 199 14 535 64 l460 67 0 300 0 299 -138 59
c-224 95 -392 117 -577 77z"/>
<path d="M3290 870 l0 -470 160 0 160 0 -2 468 -3 467 -157 3 -158 3 0 -471z"/>
<path d="M3770 870 l0 -470 280 0 280 0 -2 468 -3 467 -277 3 -278 2 0 -470z"/>
</g>
</svg>
