<?xml version="1.0" standalone="no"?>
<!DOCTYPE svg PUBLIC "-//W3C//DTD SVG 20010904//EN"
 "http://www.w3.org/TR/2001/REC-SVG-20010904/DTD/svg10.dtd">
<svg version="1.0" xmlns="http://www.w3.org/2000/svg"
 width="257.000000pt" height="196.000000pt" viewBox="0 0 257.000000 196.000000"
 preserveAspectRatio="xMidYMid meet">

<g transform="translate(0.000000,196.000000) scale(0.100000,-0.100000)"
fill="#ffffff" stroke="none">
<path d="M1004 1650 c-54 -22 -54 -22 -54 -457 0 -391 1 -403 20 -413 20 -10
20 -6 22 352 l3 363 313 3 312 2 0 -250 c0 -243 1 -250 20 -250 20 0 20 7 20
303 l0 304 -26 24 -26 24 -291 2 c-161 1 -302 -2 -313 -7z m546 -41 c0 -5 -7
-9 -15 -9 -15 0 -20 12 -9 23 8 8 24 -1 24 -14z m-120 -29 c0 -6 -47 -10 -120
-10 -73 0 -120 4 -120 10 0 6 47 10 120 10 73 0 120 -4 120 -10z"/>
<path d="M1238 1321 c-30 -27 -33 -34 -32 -85 1 -49 -1 -56 -17 -56 -14 0 -19
-7 -19 -30 0 -27 3 -30 29 -30 28 0 29 -1 21 -32 -5 -17 -19 -41 -30 -53 -17
-18 -18 -25 -8 -52 11 -29 12 -30 38 -15 24 14 35 14 83 2 48 -11 121 -10 134
3 2 2 -1 16 -7 31 -9 24 -13 26 -45 20 -19 -3 -55 -3 -79 0 l-43 7 14 44 c13
38 19 44 47 47 26 2 32 8 34 31 3 26 1 27 -41 27 -43 0 -45 1 -51 35 -10 50 7
77 47 73 21 -2 35 -10 42 -25 7 -18 15 -21 40 -16 39 8 39 6 21 41 -36 69
-120 85 -178 33z"/>
<path d="M840 1153 c-73 -83 -108 -220 -81 -320 28 -102 139 -203 269 -243
171 -54 370 -30 571 68 l74 36 27 -35 28 -34 17 40 c8 22 44 108 79 190 34 83
59 151 55 153 -8 3 -358 -64 -388 -74 -10 -3 -7 -13 13 -39 l27 -35 -53 -33
c-75 -48 -104 -62 -183 -88 -97 -32 -236 -32 -317 0 -61 24 -127 80 -153 132
-39 74 -26 201 29 282 32 47 27 47 -14 0z"/>
<path d="M1638 639 c-16 -9 -18 -26 -18 -129 l0 -120 -315 0 -315 0 0 89 c0
86 -5 101 -36 101 -2 0 -4 -71 -4 -159 0 -145 2 -161 21 -185 l20 -26 313 0
313 0 21 23 c22 23 22 30 20 220 -3 183 -4 195 -20 186z m-284 -315 c19 -19
20 -25 3 -48 -10 -13 -24 -17 -57 -14 -38 3 -45 7 -48 26 -2 13 2 30 8 38 16
19 75 18 94 -2z"/>
</g>
</svg>
